<ttFont>
          <CharString index="0">
            -98 callgsubr
            -95 callgsubr
            -96 callsubr
            return
          </CharString>
          <CharString index="1">
            -104 callgsubr
            -204 112 204 -105 callgsubr
            return
          </CharString>
          <CharString index="2">
            -329 -106 callsubr
            return
          </CharString>
          <CharString index="3">
            -59 506 -392 hlineto
            -107 callsubr
            return
          </CharString>
          <CharString index="4">
            rmoveto
            -28 -11 -10 -30 vhcurveto
            -465 -94 callsubr
            216 hlineto
            return
          </CharString>
          <CharString index="5">
            hlineto
            -91 callgsubr
            return
          </CharString>
          <CharString index="6">
            -50 callsubr
            -96 112 84 16 callsubr
            232 -36 callgsubr
            -177 -62 callgsubr
            -264 49 -112 -295 hlineto
            -53 25 -25 53 vhcurveto
            362 hlineto
            53 26 59 callgsubr
            return
          </CharString>
          <CharString index="7">
            -98 callsubr
            190 return
          </CharString>
          <CharString index="8">
            229 callsubr
            -121 -82 callgsubr
            vlineto
            endchar
          </CharString>
          <CharString index="9">
            -52 callgsubr
            -113 -398 hlineto
            -81 callgsubr
            return
          </CharString>
          <CharString index="10">
            -80 callsubr
            -212 160 callsubr
          </CharString>
          <CharString index="11">
            -39 callgsubr
            -90 callgsubr
            return
          </CharString>
          <CharString index="12">
            -73 callgsubr
            -215 -99 callgsubr
            199 59 return
          </CharString>
          <CharString index="13">
            -7 callgsubr
            253 -90 callsubr
            return
          </CharString>
          <CharString index="14">
            -59 506 -392 vlineto
            -107 callsubr
            return
          </CharString>
          <CharString index="15">
            vlineto
            -102 callgsubr
            return
          </CharString>
          <CharString index="16">
            -25 53 vhcurveto
            return
          </CharString>
          <CharString index="17">
            vlineto
            -91 callgsubr
            147 -44 callgsubr
            return
          </CharString>
          <CharString index="18">
            5 -83 callgsubr
            return
          </CharString>
          <CharString index="19">
            6 25 hvcurveto
            return
          </CharString>
          <CharString index="20">
            -70 callgsubr
            -117 -92 callsubr
            return
          </CharString>
          <CharString index="21">
            -53 26 -91 callsubr
            return
          </CharString>
          <CharString index="22">
            127 callsubr
            -329 -92 callsubr
            -1 callsubr
            return
          </CharString>
          <CharString index="23">
            vlineto
            -71 callgsubr
            return
          </CharString>
          <CharString index="24">
            563 -40 callgsubr
          </CharString>
          <CharString index="25">
            -251 -73 callsubr
            return
          </CharString>
          <CharString index="26">
            173 callgsubr
            109 hlineto
            100 callgsubr
            return
          </CharString>
          <CharString index="27">
            -75 callsubr
            -300 return
          </CharString>
          <CharString index="28">
            -6 -26 vhcurveto
            return
          </CharString>
          <CharString index="29">
            -25 -53 hvcurveto
            return
          </CharString>
          <CharString index="30">
            -62 callgsubr
            -234 -101 callgsubr
            return
          </CharString>
          <CharString index="31">
            59 -133 -103 callgsubr
            return
          </CharString>
          <CharString index="32">
            -48 callsubr
            -132 -25 callsubr
            return
          </CharString>
          <CharString index="33">
            -59 -67 callgsubr
            return
          </CharString>
          <CharString index="34">
            vlineto
            -66 callgsubr
            return
          </CharString>
          <CharString index="35">
            hlineto
            -59 callsubr
            return
          </CharString>
          <CharString index="36">
            30 2 16 17 34 vvcurveto
            122 callgsubr
            192 callsubr
            -97 113 85 -84 callsubr
            241 hlineto
            -48 callsubr
            -121 vlineto
            -73 callgsubr
            -157 -59 157 hlineto
            26 8 -8 -26 hvcurveto
            -116 43 callsubr
            -241 -88 callgsubr
            85 -113 -97 -68 callgsubr
            372 hlineto
            357 callgsubr
            205 -294 113 563 return
          </CharString>
          <CharString index="37">
            -6 -79 callsubr
            return
          </CharString>
          <CharString index="38">
            112 -83 callsubr
          </CharString>
          <CharString index="39">
            392 -42 callgsubr
            return
          </CharString>
          <CharString index="40">
            -317 hlineto
            -85 callsubr
            return
          </CharString>
          <CharString index="41">
            -53 26 3 callsubr
            return
          </CharString>
          <CharString index="42">
            -5 -79 callsubr
            return
          </CharString>
          <CharString index="43">
            -102 callgsubr
            362 102 callsubr
            -231 -43 callgsubr
            175 return
          </CharString>
          <CharString index="44">
            -14 callgsubr
            323 -36 callsubr
            62 -105 128 callgsubr
            -207 142 callsubr
            376 172 callgsubr
            endchar
          </CharString>
          <CharString index="45">
            vlineto
            -16 callsubr
            return
          </CharString>
          <CharString index="46">
            -53 -25 -25 -53 hvcurveto
            -40 callsubr
            return
          </CharString>
          <CharString index="47">
            -88 callsubr
            227 vlineto
            25 return
          </CharString>
          <CharString index="48">
            26 -26 callsubr
            return
          </CharString>
          <CharString index="49">
            42 callsubr
            -156 -68 callgsubr
            171 59 -113 -43 callgsubr
            132 16 callsubr
            221 -36 callgsubr
            -305 -62 callgsubr
            -559 -101 callgsubr
            159 -84 callsubr
            155 59 -155 -88 callgsubr
            162 -84 callsubr
            return
          </CharString>
          <CharString index="50">
            8 5 4 10 17 vvcurveto
            150 vlineto
            53 -25 24 -53 vhcurveto
            -326 hlineto
            -53 -25 -24 -53 hvcurveto
            -150 vlineto
            -17 4 -10 8 -5 vhcurveto
            -49 -3 -18 -31 -46 vvcurveto
            -126 -68 callgsubr
            309 128 callsubr
            -92 112 223 -112 -48 vlineto
            158 callsubr
            -240 -88 callgsubr
            105 -84 callsubr
            return
          </CharString>
          <CharString index="51">
            -15 callsubr
            317 return
          </CharString>
          <CharString index="52">
            -348 18 callsubr
            return
          </CharString>
          <CharString index="53">
            -96 callgsubr
            112 return
          </CharString>
          <CharString index="54">
            -39 callsubr
            -45 callgsubr
          </CharString>
          <CharString index="55">
            -25 -70 callsubr
            return
          </CharString>
          <CharString index="56">
            47 callsubr
            -221 269 callsubr
            -110 267 callsubr
            344 156 callsubr
            -284 71 callgsubr
            -92 110 103 -41 callsubr
            -343 131 callgsubr
            285 -72 callsubr
            return
          </CharString>
          <CharString index="57">
            -53 -26 -78 callsubr
            return
          </CharString>
          <CharString index="58">
            -103 callsubr
            217 callsubr
            return
          </CharString>
          <CharString index="59">
            26 6 -27 callsubr
            return
          </CharString>
          <CharString index="60">
            47 callsubr
            -169 -88 callgsubr
            46 -105 -56 -74 callgsubr
            284 -36 callsubr
            113 -41 callsubr
            -228 -88 callgsubr
            94 -84 callsubr
            169 -72 callsubr
            -46 104 56 -41 callsubr
            -283 86 callgsubr
            -115 -74 callgsubr
            228 -72 callsubr
            return
          </CharString>
          <CharString index="61">
            -26 -5 5 callsubr
            return
          </CharString>
          <CharString index="62">
            hlineto
            -61 callgsubr
            return
          </CharString>
          <CharString index="63">
            -48 callsubr
            -162 vlineto
            -25 -6 return
          </CharString>
          <CharString index="64">
            hlineto
            -13 callgsubr
            return
          </CharString>
          <CharString index="65">
            -11 callsubr
            149 return
          </CharString>
          <CharString index="66">
            vlineto
            53 -26 26 -53 vhcurveto
            return
          </CharString>
          <CharString index="67">
            -251 -30 callgsubr
            return
          </CharString>
          <CharString index="68">
            -1 -6 0 -6 -7 vvcurveto
            return
          </CharString>
          <CharString index="69">
            vlineto
            -46 callsubr
            return
          </CharString>
          <CharString index="70">
            147 callsubr
            -426 137 callgsubr
          </CharString>
          <CharString index="71">
            hlineto
            -24 callgsubr
            return
          </CharString>
          <CharString index="72">
            vlineto
            261 callgsubr
          </CharString>
          <CharString index="73">
            7 callsubr
            -25 26 -53 vhcurveto
            return
          </CharString>
          <CharString index="74">
            10 callgsubr
            -223 -88 callgsubr
            442 -84 callsubr
            223 -72 callsubr
            return
          </CharString>
          <CharString index="75">
            171 -53 callgsubr
            return
          </CharString>
          <CharString index="76">
            177 callsubr
            -242 hlineto
            -26 -5 return
          </CharString>
          <CharString index="77">
            363 -102 callsubr
            return
          </CharString>
          <CharString index="78">
            rmoveto
            -392 vlineto
            -25 -10 -9 -24 120 callsubr
            395 -107 -406 -74 callgsubr
            232 hlineto
            28 18 9 22 9 hvcurveto
            -31 107 485 vlineto
            endchar
          </CharString>
          <CharString index="79">
            38 callsubr
            hlineto
            -86 callsubr
            return
          </CharString>
          <CharString index="80">
            -5 -26 hvcurveto
            return
          </CharString>
          <CharString index="81">
            5 -27 callsubr
            return
          </CharString>
          <CharString index="82">
            vlineto
            -10 callsubr
            return
          </CharString>
          <CharString index="83">
            5 26 hvcurveto
            return
          </CharString>
          <CharString index="84">
            205 callsubr
            11 11 hvcurveto
            -11 13 return
          </CharString>
          <CharString index="85">
            -73 callgsubr
            -249 -99 callgsubr
            233 59 121 callsubr
            return
          </CharString>
          <CharString index="86">
            19 callsubr
            -6 6 25 hvcurveto
            return
          </CharString>
          <CharString index="87">
            -154 -41 callgsubr
            -252 -103 callgsubr
            return
          </CharString>
          <CharString index="88">
            vlineto
            -25 callgsubr
          </CharString>
          <CharString index="89">
            313 64 callsubr
            266 -113 -95 vlineto
            18 callgsubr
            return
          </CharString>
          <CharString index="90">
            26 6 0 callsubr
            return
          </CharString>
          <CharString index="91">
            -102 callgsubr
            -7 callsubr
            return
          </CharString>
          <CharString index="92">
            -52 callsubr
            -229 -43 callgsubr
            return
          </CharString>
          <CharString index="93">
            rlineto
            316 59 -375 -1 callgsubr
            return
          </CharString>
          <CharString index="94">
            rmoveto
            113 100 -113 hlineto
            return
          </CharString>
          <CharString index="95">
            285 callsubr
            -284 -59 218 -36 callgsubr
            -227 -62 callgsubr
            -249 -101 callgsubr
            101 -113 -113 -92 callsubr
            381 105 callgsubr
            return
          </CharString>
          <CharString index="96">
            52 callsubr
            563 return
          </CharString>
          <CharString index="97">
            -26 -70 callsubr
            return
          </CharString>
          <CharString index="98">
            37 callgsubr
            148 vlineto
            endchar
          </CharString>
          <CharString index="99">
            307 93 callsubr
            return
          </CharString>
          <CharString index="100">
            364 -102 callsubr
            return
          </CharString>
          <CharString index="101">
            -92 callsubr
            196 hlineto
            -110 -149 rlineto
            120 hlineto
            109 158 rlineto
            -90 152 callsubr
            -224 43 callsubr
            -199 -59 265 -102 callsubr
            248 -47 callgsubr
            -283 -45 callsubr
            vlineto
            endchar
          </CharString>
          <CharString index="102">
            5 26 vhcurveto
            return
          </CharString>
          <CharString index="103">
            122 callsubr
            406 -102 callsubr
            122 callgsubr
            -214 -59 154 22 callsubr
            -110 -41 callgsubr
            -281 -103 callgsubr
            return
          </CharString>
          <CharString index="104">
            169 145 rlineto
            -117 hlineto
            -110 -98 -109 98 rlineto
            -118 hlineto
            return
          </CharString>
          <CharString index="105">
            230 callsubr
            -15 -35 vvcurveto
            return
          </CharString>
          <CharString index="106">
            357 4 callsubr
            return
          </CharString>
          <CharString index="107">
            -6 -25 hvcurveto
            return
          </CharString>
          <CharString index="108">
            45 117 -79 63 hhcurveto
            27 hlineto
            55 17 30 48 hvcurveto
            60 -89 -55 vlineto
            -19 -5 -5 -14 vhcurveto
            -45 -120 79 -62 hhcurveto
            -24 hlineto
            -54 -19 -29 -49 hvcurveto
            -60 90 return
          </CharString>
          <CharString index="109">
            -83 callgsubr
            225 22 callsubr
            -106 99 118 vlineto
            53 return
          </CharString>
          <CharString index="110">
            -26 53 vhcurveto
            return
          </CharString>
          <CharString index="111">
            -102 callsubr
            270 return
          </CharString>
          <CharString index="112">
            -5 -26 vhcurveto
            return
          </CharString>
          <CharString index="113">
            hlineto
            39 callgsubr
            446 59 -378 -43 callgsubr
            150 265 vlineto
            -91 callgsubr
            245 569 -345 vlineto
            -29 -11 -9 -28 vhcurveto
            -253 hlineto
            218 callsubr
            227 hlineto
            -131 -175 rlineto
            120 hlineto
            141 191 rlineto
            -137 111 30 callgsubr
          </CharString>
          <CharString index="114">
            219 callgsubr
            112 75 vlineto
            53 return
          </CharString>
          <CharString index="115">
            622 rmoveto
            return
          </CharString>
          <CharString index="116">
            vlineto
            -3 callgsubr
          </CharString>
          <CharString index="117">
            rmoveto
            -110 -543 261 callsubr
            361 171 callsubr
            -108 170 callsubr
            -239 -88 callgsubr
            return
          </CharString>
          <CharString index="118">
            rmoveto
            14 callsubr
            194 hlineto
            24 10 -9 -25 hvcurveto
            -299 149 callgsubr
            141 -42 rmoveto
            468 -107 -31 -38 callgsubr
            -25 1 -57 -38 callsubr
            -317 -59 376 -36 callsubr
            79 vlineto
            endchar
          </CharString>
          <CharString index="119">
            vlineto
            5 callgsubr
          </CharString>
          <CharString index="120">
            rmoveto
            -213 78 213 hlineto
            -326 124 callsubr
            -2149 -77 callgsubr
            976 319 callsubr
            -195 47 callgsubr
            -28 callgsubr
            14 11 2 3 9 hvcurveto
            -32 344 callgsubr
            339 callsubr
            270 213 -426 138 callgsubr
          </CharString>
          <CharString index="121">
            -26 -5 -24 callsubr
            305 -84 callsubr
            return
          </CharString>
          <CharString index="122">
            -59 562 -78 214 callgsubr
            250 callsubr
            331 335 callgsubr
            -300 53 -114 -190 114 78 366 199 callgsubr
            return
          </CharString>
          <CharString index="123">
            vlineto
            8 callgsubr
            return
          </CharString>
          <CharString index="124">
            42 15 -5 callsubr
            49 53 -65 hlineto
            -48 -26 -25 -43 hvcurveto
            -11 vlineto
            -33 8 -42 0 vhcurveto
            0 -16 63 -12 39 vhcurveto
            -16 52 rlineto
            -88 hlineto
            32 -67 25 -51 22 -36 29 -46 rlinecurve
            -5 hlineto
            -31 45 -29 40 -58 62 -48 53 rcurveline
            -125 hlineto
            153 -137 return
          </CharString>
          <CharString index="125">
            hlineto
            -85 callgsubr
            return
          </CharString>
          <CharString index="126">
            39 callgsubr
            459 173 callsubr
            return
          </CharString>
          <CharString index="127">
            -14 callsubr
            397 27 callsubr
            return
          </CharString>
          <CharString index="128">
            -95 callgsubr
            -39 callgsubr
            return
          </CharString>
          <CharString index="129">
            hlineto
            26 5 0 callsubr
            return
          </CharString>
          <CharString index="130">
            rmoveto
            -29 -19 -10 -23 -8 hvcurveto
            33 -107 -485 107 360 1 32 350 callsubr
            24 vhcurveto
            194 193 callgsubr
            106 406 88 callgsubr
          </CharString>
          <CharString index="131">
            rmoveto
            -97 callgsubr
            return
          </CharString>
          <CharString index="132">
            -238 31 callgsubr
            220 hlineto
            -110 -149 rlineto
            125 hlineto
            111 346 callsubr
            266 -112 -83 365 callgsubr
            -5 6 25 hvcurveto
            215 -105 callgsubr
            return
          </CharString>
          <CharString index="133">
            16 callsubr
            225 22 callsubr
            return
          </CharString>
          <CharString index="134">
            -23 callsubr
            18 -5 24 hhcurveto
            return
          </CharString>
          <CharString index="135">
            -31 callsubr
            6 26 hvcurveto
            360 307 vlineto
            return
          </CharString>
          <CharString index="136">
            rmoveto
            37 hlineto
            77 130 rlineto
            50 -114 vlineto
            return
          </CharString>
          <CharString index="137">
            53 -26 25 -53 vhcurveto
            return
          </CharString>
          <CharString index="138">
            252 callgsubr
            -26 hvcurveto
            return
          </CharString>
          <CharString index="139">
            139 callsubr
            -5 return
          </CharString>
          <CharString index="140">
            -7 -5 -3 -9 -15 vvcurveto
            -172 53 callsubr
            return
          </CharString>
          <CharString index="141">
            -26 -6 -88 callsubr
            return
          </CharString>
          <CharString index="142">
            91 callsubr
            -132 vlineto
            -35 16 -15 153 callsubr
            -17 -34 vvcurveto
            -137 -68 callgsubr
            return
          </CharString>
          <CharString index="143">
            168 -107 callgsubr
            582 196 rmoveto
            return
          </CharString>
          <CharString index="144">
            -317 hlineto
            -56 callsubr
            return
          </CharString>
          <CharString index="145">
            -59 130 -407 return
          </CharString>
          <CharString index="146">
            234 20 callsubr
            return
          </CharString>
          <CharString index="147">
            158 callgsubr
            111 75 vlineto
            53 -24 26 -53 vhcurveto
            return
          </CharString>
          <CharString index="148">
            -66 callsubr
            212 hlineto
            -143 -171 rlineto
            125 hlineto
            145 183 rlineto
            -124 111 return
          </CharString>
          <CharString index="149">
            hlineto
            -50 callsubr
            return
          </CharString>
          <CharString index="150">
            vlineto
            100 callsubr
            return
          </CharString>
          <CharString index="151">
            -46 callsubr
            -202 hlineto
            14 callsubr
            202 hlineto
            26 5 -5 -26 hvcurveto
            return
          </CharString>
          <CharString index="152">
            53 -26 26 -53 vhcurveto
            -346 4 callgsubr
            return
          </CharString>
          <CharString index="153">
            rmoveto
            -28 -10 -10 -30 vhcurveto
            -465 -43 callgsubr
            return
          </CharString>
          <CharString index="154">
            rmoveto
            -46 callsubr
            return
          </CharString>
          <CharString index="155">
            110 -99 330 callsubr
            -169 146 rlineto
            -116 hlineto
            return
          </CharString>
          <CharString index="156">
            hlineto
            -102 callgsubr
            return
          </CharString>
          <CharString index="157">
            -86 callsubr
            62 callsubr
          </CharString>
          <CharString index="158">
            hlineto
            26 5 7 callsubr
            -24 26 -53 vhcurveto
            return
          </CharString>
          <CharString index="159">
            -563 112 return
          </CharString>
          <CharString index="160">
            vlineto
            -34 16 -16 30 -2 -2 callsubr
            return
          </CharString>
          <CharString index="161">
            97 callsubr
            17 12 4 9 7 hvcurveto
            -91 -69 callsubr
          </CharString>
          <CharString index="162">
            rmoveto
            137 146 59 -779 347 callgsubr
            vlineto
            -95 callgsubr
            -77 vlineto
            -53 25 -25 323 callsubr
            -6 -26 hvcurveto
            -127 -38 callsubr
            -240 -2 callgsubr
            81 -112 -93 -92 callsubr
            return
          </CharString>
          <CharString index="163">
            -73 callgsubr
            -215 -88 callgsubr
            224 213 callgsubr
            -265 hlineto
            -95 callgsubr
            return
          </CharString>
          <CharString index="164">
            rmoveto
            -1414 -59 475 -234 hlineto
            -26 -5 -5 -26 vhcurveto
            -201 172 -113 -392 74 callsubr
          </CharString>
          <CharString index="165">
            265 callgsubr
            -163 -330 vlineto
            -95 callgsubr
            -135 -62 callsubr
            154 return
          </CharString>
          <CharString index="166">
            34 callsubr
            168 16 callsubr
            return
          </CharString>
          <CharString index="167">
            121 callgsubr
            -215 -106 callgsubr
            199 59 -264 42 callsubr
            143 callgsubr
            282 hlineto
            14 11 3 6 7 hvcurveto
            -87 152 callsubr
            -227 vlineto
            -25 -6 230 callgsubr
            265 -102 callsubr
            251 -47 callgsubr
            -283 -45 callsubr
            vlineto
            endchar
          </CharString>
          <CharString index="168">
            -78 51 callgsubr
            return
          </CharString>
          <CharString index="169">
            -8 callsubr
            145 callgsubr
          </CharString>
          <CharString index="170">
            -59 403 38 callgsubr
            -309 -199 hlineto
            -53 25 3 callsubr
            437 hlineto
            -157 -149 rlineto
            138 hlineto
            return
          </CharString>
          <CharString index="171">
            -96 callgsubr
            113 return
          </CharString>
          <CharString index="172">
            4 callsubr
            214 78 callsubr
            return
          </CharString>
          <CharString index="173">
            rmoveto
            89 83 -89 hlineto
            -715 230 rmoveto
            -59 516 -78 -318 vlineto
            293 callsubr
            -85 88 callsubr
            309 hlineto
            -48 callsubr
            -114 43 callsubr
            -239 -2 callgsubr
            70 -112 -82 88 callsubr
            372 hlineto
            357 callgsubr
            -47 callgsubr
            -308 -2 callgsubr
            61 20 callgsubr
            362 137 267 59 hlineto
            endchar
          </CharString>
          <CharString index="174">
            hlineto
            18 12 4 11 7 hvcurveto
            -93 return
          </CharString>
          <CharString index="175">
            rmoveto
            -24 110 callgsubr
            -6 7 24 hvcurveto
            return
          </CharString>
          <CharString index="176">
            -51 callsubr
            endchar
          </CharString>
          <CharString index="177">
            632 875 394 rmoveto
            24 4 8 26 vhcurveto
            196 hlineto
            26 5 -8 -24 hvcurveto
            -101 vlineto
            -24 -8 -8 -17 vhcurveto
            -205 hlineto
            -19 -8 9 23 hvcurveto
            -243 270 rmoveto
            720 59 -1372 -59 541 -302 -68 hlineto
            -152 156 rlineto
            62 -60 -50 6 -79 hhcurveto
            -64 -62 22 hlineto
            46 46 -5 -50 50 hvcurveto
            132 -134 -276 -234 rlineto
            142 hlineto
            235 201 rlineto
            76 -201 111 201 return
          </CharString>
          <CharString index="178">
            -47 callsubr
            endchar
          </CharString>
          <CharString index="179">
            -348 74 callsubr
          </CharString>
          <CharString index="180">
            rmoveto
            -26 -65 callsubr
            -237 138 callsubr
            218 326 callsubr
            -1093 -59 834 -78 -653 hlineto
            -95 callgsubr
            -242 31 callgsubr
            363 200 callsubr
            261 212 -219 284 callgsubr
            137 hlineto
            175 169 rlineto
            0 -5 214 callsubr
            -40 callgsubr
          </CharString>
          <CharString index="181">
            231 callsubr
            569 -347 vlineto
            -28 -11 -10 -28 vhcurveto
            -253 hlineto
            2 callgsubr
            314 128 callsubr
            -134 111 30 callgsubr
          </CharString>
          <CharString index="182">
            31 callsubr
            -109 -82 callgsubr
            return
          </CharString>
          <CharString index="183">
            -39 callsubr
            102 callgsubr
          </CharString>
          <CharString index="184">
            rmoveto
            108 -146 rlineto
            118 hlineto
            -112 146 rlineto
            return
          </CharString>
          <CharString index="185">
            -426 112 563 return
          </CharString>
          <CharString index="186">
            190 callgsubr
            -797 -59 528 -78 -319 258 callsubr
            106 126 callgsubr
            100 -43 callsubr
            166 -113 -154 -38 callsubr
            -252 239 callsubr
          </CharString>
          <CharString index="187">
            247 callsubr
            hlineto
            endchar
          </CharString>
          <CharString index="188">
            563 218 callgsubr
          </CharString>
          <CharString index="189">
            8 callgsubr
            212 326 callgsubr
            -356 -209 49 callsubr
            return
          </CharString>
          <CharString index="190">
            rmoveto
            174 callgsubr
            167 267 callgsubr
            -198 hlineto
            -26 -65 callsubr
            return
          </CharString>
          <CharString index="191">
            286 59 -286 215 327 59 -439 -622 453 59 return
          </CharString>
          <CharString index="192">
            53 25 24 53 hvcurveto
            247 return
          </CharString>
          <CharString index="193">
            360 1080 8 callsubr
            -1100 -59 506 hlineto
            -48 callsubr
            -155 -25 callsubr
            -263 87 -113 -354 hlineto
            -86 callsubr
            356 105 callgsubr
            133 -111 -121 vlineto
            -25 -7 -79 callsubr
            -224 -101 callgsubr
            196 329 vlineto
            159 callgsubr
            40 196 vlineto
            26 4 -8 -24 hvcurveto
            return
          </CharString>
          <CharString index="194">
            rmoveto
            -797 -59 506 -72 callsubr
            -157 -41 callgsubr
            -263 88 -113 -354 49 callsubr
            356 -102 callsubr
            133 -112 -121 -62 callgsubr
            -224 -101 callgsubr
            195 329 vlineto
            -91 callgsubr
            171 vlineto
            15 -3 9 -7 5 vhcurveto
            157 hlineto
            endchar
          </CharString>
          <CharString index="195">
            vlineto
            39 callgsubr
            return
          </CharString>
          <CharString index="196">
            -23 callsubr
            19 -5 24 hhcurveto
            return
          </CharString>
          <CharString index="197">
            33 callsubr
            -176 -68 callgsubr
            679 -102 callsubr
            329 vlineto
            return
          </CharString>
          <CharString index="198">
            -7 -5 -3 -9 -15 vvcurveto
            return
          </CharString>
          <CharString index="199">
            rmoveto
            -25 -6 -6 -26 vhcurveto
            -276 hlineto
            -26 -5 6 25 hvcurveto
            305 73 callgsubr
            133 callsubr
          </CharString>
          <CharString index="200">
            -96 callgsubr
            111 return
          </CharString>
          <CharString index="201">
            24 callsubr
            129 262 -90 callsubr
            108 59 -645 63 callsubr
            167 168 rlineto
            40 40 hlineto
            endchar
          </CharString>
          <CharString index="202">
            105 callgsubr
            407 return
          </CharString>
          <CharString index="203">
            -59 556 -78 -358 vlineto
            293 callsubr
            -64 88 callsubr
            334 hlineto
            -48 callsubr
            -66 43 callsubr
            -293 53 -114 -190 114 78 359 -102 callsubr
            90 -47 callgsubr
            -334 -2 callgsubr
            40 20 callgsubr
            endchar
          </CharString>
          <CharString index="204">
            hlineto
            -80 callsubr
            0 callgsubr
            535 hlineto
            return
          </CharString>
          <CharString index="205">
            rmoveto
            106 callsubr
            return
          </CharString>
          <CharString index="206">
            rmoveto
            102 hlineto
            164 145 311 callsubr
            return
          </CharString>
          <CharString index="207">
            -26 -6 5 callsubr
            return
          </CharString>
          <CharString index="208">
            175 rmoveto
            -28 -11 -10 -29 vhcurveto
            -466 -94 callsubr
            216 hlineto
            return
          </CharString>
          <CharString index="209">
            -43 callsubr
            118 -113 -106 -41 callgsubr
            return
          </CharString>
          <CharString index="210">
            317 -96 callgsubr
            return
          </CharString>
          <CharString index="211">
            -11 709 8 callsubr
            -729 -59 729 hlineto
            -485 -418 rmoveto
            270 callgsubr
            218 241 callgsubr
            -249 hlineto
            -26 -65 callsubr
            141 281 rmoveto
            269 59 -710 hlineto
            -95 callgsubr
            -242 31 callgsubr
            363 200 callsubr
            return
          </CharString>
          <CharString index="212">
            -46 callsubr
            -201 return
          </CharString>
          <CharString index="213">
            -26 -6 -24 callsubr
            28 vlineto
            26 6 4 26 vhcurveto
            143 return
          </CharString>
          <CharString index="214">
            vlineto
            100 callgsubr
            return
          </CharString>
          <CharString index="215">
            -26 589 543 -33 callsubr
            return
          </CharString>
          <CharString index="216">
            -26 -5 -24 callsubr
            33 -84 callsubr
            407 137 return
          </CharString>
          <CharString index="217">
            38 237 callsubr
            141 418 rmoveto
            107 59 -777 65 callgsubr
            return
          </CharString>
          <CharString index="218">
            hlineto
            22 -53 23 -59 16 -47 22 -41 rlinecurve
            -5 hlineto
            -27 46 -30 42 -57 63 -43 49 rcurveline
            -121 hlineto
            139 -132 39 -36 26 -21 15 -11 rlinecurve
            return
          </CharString>
          <CharString index="219">
            38 callsubr
            -68 callgsubr
            return
          </CharString>
          <CharString index="220">
            33 callsubr
            -173 -68 callgsubr
            266 hlineto
            -93 -165 rlineto
            110 hlineto
            71 138 67 -138 271 callgsubr
            -90 165 rlineto
            237 -102 callsubr
            326 vlineto
            return
          </CharString>
          <CharString index="221">
            vlineto
            33 callsubr
            return
          </CharString>
          <CharString index="222">
            189 callsubr
            180 59 -180 -88 callgsubr
            50 -105 callgsubr
            291 137 206 hlineto
            181 callgsubr
            -1032 -59 454 -78 -246 268 callsubr
            vlineto
            -35 16 -16 29 -1 163 callsubr
            -16 -34 vvcurveto
            return
          </CharString>
          <CharString index="223">
            43 hlineto
            146 callgsubr
            5 -6 -26 hvcurveto
            -30 return
          </CharString>
          <CharString index="224">
            hhcurveto
            -50 callgsubr
          </CharString>
          <CharString index="225">
            hlineto
            -32 -13 -14 -25 -5 hvcurveto
            -4 hlineto
            14 callgsubr
            -310 hlineto
            -95 callgsubr
            return
          </CharString>
          <CharString index="226">
            -79 callgsubr
            147 -44 callgsubr
            215 hlineto
            return
          </CharString>
          <CharString index="227">
            vhcurveto
            -194 -88 callgsubr
            return
          </CharString>
          <CharString index="228">
            -299 hlineto
            -95 callgsubr
            return
          </CharString>
          <CharString index="229">
            -329 -68 callgsubr
            return
          </CharString>
          <CharString index="230">
            vlineto
            35 callgsubr
          </CharString>
          <CharString index="231">
            -395 -107 callgsubr
            587 196 rmoveto
            return
          </CharString>
          <CharString index="232">
            -150 vlineto
            -34 15 -17 30 -1 241 callsubr
            -1 -15 -16 -34 vvcurveto
            -108 351 callgsubr
            3 6 7 hvcurveto
            -52 113 404 -113 -93 -287 vlineto
            -26 -6 7 25 hvcurveto
            131 16 callsubr
            endchar
          </CharString>
          <CharString index="233">
            -59 527 -78 -336 vlineto
            -53 -25 -25 -53 hvcurveto
            -251 -17 callgsubr
            return
          </CharString>
          <CharString index="234">
            -56 callsubr
            -110 return
          </CharString>
          <CharString index="235">
            hlineto
            18 11 4 10 7 hvcurveto
            return
          </CharString>
          <CharString index="236">
            -43 callsubr
            152 11 callgsubr
            -308 28 callgsubr
            endchar
          </CharString>
          <CharString index="237">
            -102 callsubr
            329 -47 callgsubr
            return
          </CharString>
          <CharString index="238">
            78 callsubr
            149 return
          </CharString>
          <CharString index="239">
            rmoveto
            -52 callsubr
            -276 223 callgsubr
            26 6 -6 -25 hvcurveto
            return
          </CharString>
          <CharString index="240">
            122 callsubr
            403 130 callsubr
            -146 78 hlineto
            endchar
          </CharString>
          <CharString index="241">
            53 24 -79 callgsubr
            return
          </CharString>
          <CharString index="242">
            355 callgsubr
            -28 callgsubr
            11 180 callsubr
            -45 vlineto
            -53 return
          </CharString>
          <CharString index="243">
            -74 callsubr
            hlineto
            endchar
          </CharString>
          <CharString index="244">
            113 563 148 hlineto
            endchar
          </CharString>
          <CharString index="245">
            hlineto
            270 callgsubr
            return
          </CharString>
          <CharString index="246">
            -234 hlineto
            -26 return
          </CharString>
          <CharString index="247">
            146 -324 vlineto
            -61 callgsubr
            622 vlineto
            -69 callgsubr
            return
          </CharString>
          <CharString index="248">
            622 253 callsubr
            return
          </CharString>
          <CharString index="249">
            -88 callgsubr
            129 return
          </CharString>
          <CharString index="250">
            -59 562 -78 -361 42 callsubr
            -57 -68 callgsubr
            329 335 callgsubr
            -299 53 -114 -190 114 78 -11 callgsubr
            return
          </CharString>
          <CharString index="251">
            273 callsubr
            -115 78 hlineto
            endchar
          </CharString>
          <CharString index="252">
            hlineto
            82 callsubr
            590 27 callgsubr
          </CharString>
          <CharString index="253">
            -392 vlineto
            -95 callsubr
            return
          </CharString>
          <CharString index="254">
            -89 callgsubr
            307 return
          </CharString>
          <CharString index="255">
            -7 -26 vhcurveto
            -237 hlineto
            -26 return
          </CharString>
          <CharString index="256">
            vlineto
            -26 -65 callsubr
            return
          </CharString>
          <CharString index="257">
            106 hlineto
            91 callsubr
            -109 vlineto
            -53 25 -24 53 vhcurveto
            282 -94 callgsubr
            -50 100 256 92 vlineto
            -13 callgsubr
            301 353 callsubr
          </CharString>
          <CharString index="258">
            29 callsubr
            endchar
          </CharString>
          <CharString index="259">
            224 callgsubr
            215 -36 callgsubr
            return
          </CharString>
          <CharString index="260">
            30 -2 230 callsubr
            return
          </CharString>
          <CharString index="261">
            24 callsubr
            112 vlineto
            45 -4 59 0 vhcurveto
            368 -243 rlineto
            -3 -5 -7 -1 -9 hhcurveto
            return
          </CharString>
          <CharString index="262">
            68 callsubr
            112 vlineto
            25 358 callsubr
            return
          </CharString>
          <CharString index="263">
            -36 callsubr
            185 -41 callsubr
            return
          </CharString>
          <CharString index="264">
            rmoveto
            -140 145 311 callsubr
            164 -145 rlineto
            return
          </CharString>
          <CharString index="265">
            -28 -11 -10 -29 vhcurveto
            return
          </CharString>
          <CharString index="266">
            -102 callsubr
            118 -112 -106 -62 callgsubr
            -231 hlineto
            -26 -5 320 callgsubr
            24 359 callgsubr
            -24 25 -53 vhcurveto
            560 hmoveto
            return
          </CharString>
          <CharString index="267">
            hlineto
            50 callgsubr
          </CharString>
          <CharString index="268">
            rmoveto
            -24 -5 -7 283 callgsubr
            -5 7 24 hvcurveto
            112 vlineto
            return
          </CharString>
          <CharString index="269">
            hlineto
            -21 callsubr
            return
          </CharString>
          <CharString index="270">
            vhcurveto
            -4 vlineto
            -29 -2 -16 return
          </CharString>
          <CharString index="271">
            -59 510 hlineto
            -48 callsubr
            -160 -25 callsubr
            -267 136 -113 -398 hlineto
            -86 callsubr
            390 59 -325 -101 callgsubr
            191 return
          </CharString>
          <CharString index="272">
            189 callgsubr
            -384 -59 94 hlineto
            91 callsubr
            -241 -92 callsubr
            377 27 callgsubr
          </CharString>
          <CharString index="273">
            61 callsubr
            -110 return
          </CharString>
          <CharString index="274">
            89 callsubr
            363 4 callsubr
            return
          </CharString>
          <CharString index="275">
            -95 callgsubr
            -237 47 callgsubr
            return
          </CharString>
          <CharString index="276">
            -405 201 hmoveto
            485 -107 -485 vlineto
            return
          </CharString>
          <CharString index="277">
            -532 -38 callsubr
            return
          </CharString>
          <CharString index="278">
            -36 callsubr
            543 return
          </CharString>
          <CharString index="279">
            -24 callsubr
            142 vlineto
            25 return
          </CharString>
          <CharString index="280">
            59 -391 hlineto
            -26 return
          </CharString>
          <CharString index="281">
            251 callsubr
            -51 vlineto
            -25 -7 320 callsubr
            26 -25 53 vhcurveto
            532 hlineto
            17 12 4 9 7 hvcurveto
            -91 -69 callsubr
          </CharString>
          <CharString index="282">
            357 -55 callgsubr
          </CharString>
          <CharString index="283">
            59 -392 -59 278 vlineto
            -291 -367 rlineto
            -59 407 59 return
          </CharString>
          <CharString index="284">
            rmoveto
            -73 callgsubr
            return
          </CharString>
          <CharString index="285">
            -101 callgsubr
            85 251 vlineto
            -24 callgsubr
            75 11 callgsubr
            return
          </CharString>
          <CharString index="286">
            -128 rmoveto
            -26 -8 -10 -26 vhcurveto
            -115 -58 163 hlineto
            54 33 27 60 hvcurveto
            86 -101 vlineto
            return
          </CharString>
          <CharString index="287">
            10 1 2 8 hvcurveto
            return
          </CharString>
          <CharString index="288">
            rmoveto
            -28 -10 -10 -30 vhcurveto
            -448 -7 callgsubr
            236 272 callgsubr
            return
          </CharString>
          <CharString index="289">
            hlineto
            36 callgsubr
            return
          </CharString>
          <CharString index="290">
            -51 -23 -24 -50 hvcurveto
            -57 vlineto
            -32 14 -15 27 -2 vhcurveto
            -4 vlineto
            -27 -1 -14 -15 -31 vvcurveto
            -57 vlineto
            -50 23 -24 51 vhcurveto
            536 59 -481 hlineto
            -25 -5 5 24 hvcurveto
            return
          </CharString>
          <CharString index="291">
            173 callgsubr
            110 hlineto
            8 callgsubr
            return
          </CharString>
          <CharString index="292">
            -26 -54 hvcurveto
            -11 vlineto
            -37 9 -30 1 -4 vhcurveto
            -2 4 -15 42 return
          </CharString>
          <CharString index="293">
            286 callsubr
            87 216 callgsubr
            return
          </CharString>
          <CharString index="294">
            112 30 callgsubr
          </CharString>
          <CharString index="295">
            hlineto
            174 callgsubr
            return
          </CharString>
          <CharString index="296">
            vlineto
            227 callgsubr
            return
          </CharString>
          <CharString index="297">
            -348 196 callsubr
            return
          </CharString>
          <CharString index="298">
            -101 callgsubr
            395 return
          </CharString>
          <CharString index="299">
            -372 42 callsubr
            return
          </CharString>
          <CharString index="300">
            rmoveto
            -50 callsubr
            -96 112 84 16 callsubr
            232 -36 callgsubr
            -177 -62 callgsubr
            -264 49 -112 return
          </CharString>
          <CharString index="301" raw="1">
            f78f07c0 0b  
          </CharString>
          <CharString index="302">
            43 15 4 26 vhcurveto
            49 61 -79 hlineto
            -55 -26 185 callsubr
            -35 46 -49 68 rcurveline
            -115 hlineto
            77 -101 return
          </CharString>
          <CharString index="303">
            vlineto
            -85 callgsubr
            return
          </CharString>
          <CharString index="304">
            hlineto
            26 17 5 11 10 hvcurveto
            -11 13 19 254 callgsubr
          </CharString>
          <CharString index="305">
            hlineto
            168 callsubr
            return
          </CharString>
          <CharString index="306">
            30 callsubr
            -361 324 callgsubr
            return
          </CharString>
          <CharString index="307">
            hlineto
            159 callgsubr
            return
          </CharString>
          <CharString index="308">
            -57 callgsubr
            -31 107 669 return
          </CharString>
          <CharString index="309">
            -88 callsubr
            85 252 vlineto
            159 callgsubr
            75 -47 callgsubr
            return
          </CharString>
          <CharString index="310">
            -59 221 -563 110 563 221 return
          </CharString>
          <CharString index="311">
            137 157 59 return
          </CharString>
          <CharString index="312">
            hlineto
            25 17 5 return
          </CharString>
          <CharString index="313">
            -243 -92 callsubr
            304 hlineto
            -130 -147 rlineto
            116 hlineto
            127 157 rlineto
            -96 138 callgsubr
          </CharString>
          <CharString index="314">
            24 callsubr
            120 -84 callsubr
            197 59 -197 -88 callgsubr
            123 -84 callsubr
            return
          </CharString>
          <CharString index="315">
            hlineto
            -170 200 311 callsubr
            85 -101 38 -46 37 -32 25 -21 rlinecurve
            return
          </CharString>
          <CharString index="316">
            rmoveto
            -110 hlineto
            -199 -341 -208 341 rlineto
            -111 hlineto
            265 return
          </CharString>
          <CharString index="317">
            359 callsubr
            -805 -59 545 -78 -329 return
          </CharString>
          <CharString index="318">
            hlineto
            26 17 5 11 10 hvcurveto
            -11 13 19 -5 24 hhcurveto
            return
          </CharString>
          <CharString index="319">
            -79 callsubr
            -356 371 callgsubr
            return
          </CharString>
          <CharString index="320">
            292 callsubr
            94 return
          </CharString>
          <CharString index="321">
            -56 -48 vvcurveto
            -26 108 590 return
          </CharString>
          <CharString index="322">
            -124 -92 callsubr
            return
          </CharString>
          <CharString index="323">
            hlineto
            34 callgsubr
            return
          </CharString>
          <CharString index="324">
            260 59 rmoveto
            return
          </CharString>
          <CharString index="325">
            -26 -6 -24 callsubr
            154 107 callsubr
            242 59 -300 282 callsubr
            -179 vlineto
            -50 21 -28 49 vhcurveto
            return
          </CharString>
          <CharString index="326">
            90 132 callsubr
            return
          </CharString>
          <CharString index="327">
            -63 callgsubr
            104 return
          </CharString>
          <CharString index="328">
            -59 130 -407 vlineto
            154 callgsubr
            return
          </CharString>
          <CharString index="329">
            -219 248 callsubr
            return
          </CharString>
          <CharString index="330">
            rmoveto
            563 -109 -622 425 59 vlineto
            endchar
          </CharString>
          <CharString index="331">
            -26 vhcurveto
            -227 -101 callgsubr
            return
          </CharString>
          <CharString index="332">
            90 47 callsubr
            return
          </CharString>
          <CharString index="333">
            rlineto
            -4 -5 -8 -2 -12 hhcurveto
            return
          </CharString>
          <CharString index="334">
            -700 -189 8 callsubr
            -27 46 -30 42 -57 63 -43 49 rcurveline
            -121 hlineto
            139 -132 rlineto
            64 -60 30 -18 0 vvcurveto
            return
          </CharString>
          <CharString index="335">
            -392 305 callsubr
            return
          </CharString>
          <CharString index="336">
            hlineto
            -53 -25 25 callgsubr
            return
          </CharString>
          <CharString index="337">
            341 callsubr
            -16 return
          </CharString>
          <CharString index="338">
            hlineto
            140 callgsubr
            return
          </CharString>
          <CharString index="339">
            -700 14 822 rmoveto
            -177 hlineto
            -95 callgsubr
            -145 112 133 16 callsubr
            111 hlineto
            return
          </CharString>
          <CharString index="340">
            137 rmoveto
            59 callsubr
            return
          </CharString>
          <CharString index="341">
            rmoveto
            62 callgsubr
            return
          </CharString>
          <CharString index="342">
            rmoveto
            137 181 59 -823 350 callgsubr
            258 callsubr
            return
          </CharString>
          <CharString index="343">
            -101 callgsubr
            138 308 vlineto
            -13 callgsubr
            160 11 callgsubr
            -341 hlineto
            -53 return
          </CharString>
          <CharString index="344">
            219 145 83 callsubr
            return
          </CharString>
          <CharString index="345">
            71 -113 -58 301 callgsubr
            25 5 6 26 vhcurveto
            endchar
          </CharString>
          <CharString index="346">
            -88 callgsubr
            302 -105 callgsubr
            endchar
          </CharString>
          <CharString index="347">
            -451 hlineto
            -73 callgsubr
            return
          </CharString>
          <CharString index="348">
            vhcurveto
            -4 vlineto
            -30 return
          </CharString>
          <CharString index="349">
            228 callsubr
            -6 6 25 hvcurveto
            227 vlineto
            24 6 189 callgsubr
            return
          </CharString>
          <CharString index="350">
            94 hlineto
            -7 -5 -3 -10 -14 vvcurveto
            -228 31 callgsubr
            270 hlineto
            -156 -149 rlineto
            134 hlineto
            return
          </CharString>
          <CharString index="351">
            168 rmoveto
            -25 -5 290 callgsubr
            267 hlineto
            return
          </CharString>
          <CharString index="352">
            121 callsubr
            -238 31 callgsubr
            222 hlineto
            -123 -149 rlineto
            123 hlineto
            return
          </CharString>
          <CharString index="353">
            -48 rmoveto
            -107 -485 107 348 hlineto
            49 21 26 46 vhcurveto
            113 62 -95 hlineto
            -48 -27 -26 -36 -10 hvcurveto
            endchar
          </CharString>
          <CharString index="354">
            -21 callgsubr
            -39 -74 callgsubr
            202 54 return
          </CharString>
          <CharString index="355">
            281 callsubr
            174 169 rlineto
            0 return
          </CharString>
          <CharString index="356">
            189 callsubr
            269 hlineto
            return
          </CharString>
          <CharString index="357">
            -57 -92 callsubr
            return
          </CharString>
          <CharString index="358">
            hlineto
            286 callgsubr
            return
          </CharString>
          <CharString index="359">
            173 rmoveto
            -116 vlineto
            -26 -8 -8 -26 vhcurveto
            -253 -43 callgsubr
            88 20 callgsubr
            return
          </CharString>
          <CharString index="360">
            rmoveto
            -499 vlineto
            -325 499 rlineto
            -109 -622 101 503 hlineto
            329 -503 rlineto
            105 622 hlineto
            return
          </CharString>
          <CharString index="361">
            40 617 104 callgsubr
            143 59 -780 -59 524 -78 -320 vlineto
            -95 callgsubr
            return
          </CharString>
          <CharString index="362">
            rmoveto
            -25 -5 -7 283 callgsubr
            -5 7 25 hvcurveto
            110 249 callsubr
            return
          </CharString>
          <CharString index="363">
            -32 callsubr
            624 hmoveto
            59 return
          </CharString>
          <CharString index="364">
            vlineto
            166 callgsubr
          </CharString>
          <CharString index="365">
            43 callgsubr
            -326 -68 callgsubr
            return
          </CharString>
          <CharString index="366">
            rmoveto
            108 -146 rlineto
            118 hlineto
            -111 146 rlineto
            return
          </CharString>
          <CharString index="367">
            vlineto
            -59 callsubr
            -132 149 callsubr
            return
          </CharString>
          <CharString index="368">
            hlineto
            -66 callsubr
            return
          </CharString>
          <CharString index="369">
            184 callgsubr
            -642 return
          </CharString>
          <CharString index="370">
            11 callgsubr
            -315 28 callgsubr
            endchar
          </CharString>
          <CharString index="371">
            rmoveto
            -127 154 rlineto
            -115 hlineto
            128 -154 -128 -154 rlineto
            115 hlineto
            endchar
          </CharString>
          <CharString index="372">
            -53 -22 -22 -53 hvcurveto
            -120 262 callgsubr
            return
          </CharString>
          <CharString index="373">
            308 vlineto
            -91 callgsubr
            return
          </CharString>
          <CharString index="374">
            -103 -74 callgsubr
            return
          </CharString>
          <CharString index="375">
            hlineto
            -95 callgsubr
            -68 return
          </CharString>
          <CharString index="376">
            -88 callgsubr
            92 return
          </CharString>
          <CharString index="377">
            -343 hlineto
            -53 return
          </CharString>
          <CharString index="378">
            -137 -381 return
          </CharString>
          <CharString index="379">
            -35 15 -16 30 -2 341 callsubr
            -15 -16 -34 vvcurveto
            -124 31 callgsubr
            return
          </CharString>
          <CharString index="380">
            -68 callgsubr
            679 130 callsubr
            return
          </CharString>
          <CharString index="381">
            59 -391 -43 callgsubr
            149 265 vlineto
            85 callsubr
            return
          </CharString>
          <CharString index="382">
            hlineto
            -143 138 rlineto
            59 -62 -48 8 -73 hhcurveto
            -100 50 hlineto
            15 -3 9 -7 5 vhcurveto
            return
          </CharString>
          <CharString index="383">
            -241 rmoveto
            48 -19 28 -55 vhcurveto
            -74 -58 20 hlineto
            26 3 -9 -24 hvcurveto
            -237 99 67 return
          </CharString>
          <CharString index="384">
            -148 310 callsubr
            173 162 rlineto
            return
          </CharString>
          <CharString index="385">
            307 callgsubr
            187 return
          </CharString>
          <CharString index="386">
            357 callsubr
            174 162 rlineto
            return
          </CharString>
          <CharString index="387">
            -78 -144 43 callgsubr
            return
          </CharString>
          <CharString index="388">
            284 callgsubr
            138 hlineto
            return
          </CharString>
          <CharString index="389">
            hlineto
            293 callsubr
            return
          </CharString>
          <CharString index="390">
            rmoveto
            -26 -5 -24 callsubr
            return
          </CharString>
          <CharString index="391">
            hlineto
            53 24 26 53 hvcurveto
            return
          </CharString>
          <CharString index="392">
            53 -24 25 -53 vhcurveto
            return
          </CharString>
          <CharString index="393">
            -26 -8 9 24 hvcurveto
            return
          </CharString>
          <CharString index="394">
            -47 callgsubr
            -146 78 hlineto
            endchar
          </CharString>
          <CharString index="395">
            -102 callgsubr
            156 callgsubr
            return
          </CharString>
          <CharString index="396">
            -396 161 callsubr
            return
          </CharString>
          <CharString index="397">
            517 hlineto
            17 12 4 9 7 hvcurveto
            -91 -69 callsubr
          </CharString>
          <CharString index="398">
            -91 callsubr
            339 callsubr
            return
          </CharString>
          <CharString index="399">
            rmoveto
            -14 -11 -3 -6 -7 hvcurveto
            return
          </CharString>
          <CharString index="400">
            -53 -24 -78 callsubr
            return
          </CharString>
          <CharString index="401">
            -39 callgsubr
            364 105 callgsubr
            270 return
          </CharString>
          <CharString index="402">
            -124 -30 callgsubr
            return
          </CharString>
          <CharString index="403">
            -426 137 callsubr
          </CharString>
          <CharString index="404">
            -250 hlineto
            310 callgsubr
            return
          </CharString>
          <CharString index="405">
            vlineto
            -48 21 -30 56 vhcurveto
            return
          </CharString>
          <CharString index="406" raw="1">
            8b0a210b   
          </CharString>
          <CharString index="407">
            362 hlineto
            53 return
          </CharString>
          <CharString index="408">
            332 callgsubr
            408 137 return
          </CharString>
          <CharString index="409">
            -77 hlineto
            247 callsubr
            return
          </CharString>
          <CharString index="410">
            -78 -652 vlineto
            -95 callgsubr
            -195 vlineto
            -24 -8 -10 -26 vhcurveto
            return
          </CharString>
          <CharString index="411">
            115 callgsubr
            69 -182 rmoveto
            109 hlineto
            return
          </CharString>
          <CharString index="412">
            hlineto
            -73 callgsubr
            -309 hlineto
            -26 return
          </CharString>
          <CharString index="413">
            -20 -22 -44 hvcurveto
            -205 vlineto
            -45 20 -21 return
          </CharString>
          <CharString index="414">
            -426 81 callgsubr
            return
          </CharString>
          <CharString index="415">
            hlineto
            85 -101 45 -54 43 -36 25 -19 rlinecurve
            return
          </CharString>
          <CharString index="416">
            vhcurveto
            -238 hlineto
            -26 return
          </CharString>
          <CharString index="417">
            -162 rlineto
            90 hlineto
            return
          </CharString>
          <CharString index="418">
            rlineto
            -126 hlineto
            return
          </CharString>
          <CharString index="419">
            -43 callgsubr
            215 16 callsubr
            233 return
          </CharString>
          <CharString index="420">
            rmoveto
            -91 139 91 vlineto
            -407 hmoveto
            -91 139 91 vlineto
            endchar
          </CharString>
          <CharString index="421">
            hlineto
            56 21 30 48 hvcurveto
            466 vlineto
            48 -21 30 -56 vhcurveto
            endchar
          </CharString>
          <CharString index="422">
            -84 callsubr
            endchar
          </CharString>
          <CharString index="423">
            353 callgsubr
            5 -6 -25 hvcurveto
            return
          </CharString>
          <CharString index="424">
            171 8 callsubr
            -39 hlineto
            -81 -196 rlineto
            -62 120 vlineto
            return
          </CharString>
          <CharString index="425">
            -113 322 callsubr
            return
          </CharString>
          <CharString index="426">
            -78 171 callgsubr
            return
          </CharString>
          <CharString index="427">
            -7 -26 vhcurveto
            -297 -156 hlineto
            -53 return
          </CharString>
          <CharString index="428">
            106 -105 callgsubr
            return
          </CharString>
          <CharString index="429">
            -95 vlineto
            -73 callgsubr
            return
          </CharString>
          <CharString index="430">
            53 vhcurveto
            309 hlineto
            26 5 return
          </CharString>
          <CharString index="431" raw="1">
            1efb9106 71850b  
          </CharString>
          <CharString index="432">
            16 callsubr
            268 hlineto
            587 196 rmoveto
            return
          </CharString>
          <CharString index="433">
            280 callgsubr
            581 196 rmoveto
            return
          </CharString>
          <CharString index="434">
            hlineto
            -73 callgsubr
            -510 -43 callgsubr
            return
          </CharString>
          <CharString index="435">
            hlineto
            265 callsubr
            return
          </CharString>
          <CharString index="436">
            42 callsubr
            122 callsubr
            return
          </CharString>
          <CharString index="437">
            rlineto
            117 hlineto
            return
          </CharString>
          <CharString index="438">
            0 callsubr
            -155 337 callsubr
            return
          </CharString>
          <CharString index="439">
            -92 callsubr
            286 59 -220 hlineto
            -26 return
          </CharString>
          <CharString index="440">
            vlineto
            34 -16 17 -29 3 vhcurveto
            29 2 16 19 34 vvcurveto
            return
          </CharString>
          <CharString index="441">
            16 -16 30 -2 241 callsubr
            -1 -16 -16 -34 vvcurveto
            return
          </CharString>
          <CharString index="442">
            -53 -27 -78 callsubr
            -140 vlineto
            -53 27 -91 callsubr
            return
          </CharString>
          <CharString index="443">
            4 vlineto
            30 2 16 17 34 vvcurveto
            return
          </CharString>
          <CharString index="444">
            -329 43 callgsubr
            return
          </CharString>
          <CharString index="445">
            426 349 callgsubr
            return
          </CharString>
          <CharString index="446">
            363 -43 callsubr
            return
          </CharString>
          <CharString index="447">
            -84 callsubr
            202 return
          </CharString>
          <CharString index="448">
            241 callsubr
            -2 return
          </CharString>
          <CharString index="449">
            -79 callsubr
            -199 return
          </CharString>
          <CharString index="450">
            -28 -11 -10 -28 vhcurveto
            return
          </CharString>
          <CharString index="451">
            26 vhcurveto
            247 return
          </CharString>
          <CharString index="452">
            -54 callsubr
            563 return
          </CharString>
          <CharString index="453">
            161 rlineto
            -102 112 return
          </CharString>
          <CharString index="454">
            hlineto
            -53 -22 -22 -53 hvcurveto
            return
          </CharString>
          <CharString index="455">
            rmoveto
            -95 callgsubr
            return
          </CharString>
          <CharString index="456">
            -24 callgsubr
            60 return
          </CharString>
          <CharString index="457">
            vlineto
            25 10 9 return
          </CharString>
          <CharString index="458">
            16 -16 153 callsubr
            -16 return
          </CharString>
          <CharString index="459">
            -83 callgsubr
            231 -36 callgsubr
            return
          </CharString>
          <CharString index="460">
            11 callgsubr
            -90 78 hlineto
            endchar
          </CharString>
          <CharString index="461">
            42 callsubr
            -68 return
          </CharString>
          <CharString index="462">
            -89 vlineto
            -52 24 -26 54 vhcurveto
            return
          </CharString>
          <CharString index="463">
            192 182 -192 hlineto
            return
          </CharString>
          <CharString index="464">
            -150 310 callsubr
            return
          </CharString>
          <CharString index="465">
            -58 callgsubr
            269 hlineto
            return
          </CharString>
          <CharString index="466">
            137 149 59 return
          </CharString>
          <CharString index="467">
            -56 -21 -30 -48 hvcurveto
            return
          </CharString>
          <CharString index="468">
            vlineto
            181 callgsubr
            return
          </CharString>
          <CharString index="469">
            563 rmoveto
            59 return
          </CharString>
          <CharString index="470">
            -362 hlineto
            -53 return
          </CharString>
          <CharString index="471">
            -26 vhcurveto
            -240 -43 callgsubr
            return
          </CharString>
          <CharString index="472">
            -41 callgsubr
            -231 hlineto
            -26 return
          </CharString>
          <CharString index="473">
            -652 hlineto
            -95 callgsubr
            -237 return
          </CharString>
          <CharString index="474">
            91 callsubr
            -172 vlineto
            -34 return
          </CharString>
          <CharString index="475" raw="1">
            f7af2b1d 0b  
          </CharString>
          <CharString index="476">
            56 272 rmoveto
            539 78 -539 hlineto
            return
          </CharString>
          <CharString index="477">
            308 129 hlineto
            endchar
          </CharString>
        <CharString name=".notdef">
          -212 endchar
        </CharString>
        <CharString name="A">
          -6 207 182 -5 callgsubr
        </CharString>
        <CharString name="AE">
          326 286 201 rmoveto
          242 344 rlineto
          -344 vlineto
          111 -142 rmoveto
          230 286 59 -286 215 318 59 -487 vlineto
          -443 -622 rlineto
          118 hlineto
          100 142 rlineto
          283 -142 442 59 hlineto
          endchar
        </CharString>
        <CharString name="Aacute">
          -7 571 815 52 callgsubr
          -200 -488 -5 callgsubr
        </CharString>
        <CharString name="Abreve">
          -7 476 669 78 callgsubr
          -10 -487 -5 callgsubr
        </CharString>
        <CharString name="Acircumflex">
          -7 346 768 rmoveto
          48 callsubr
          -169 -146 rlineto
          118 hlineto
          -30 -487 -5 callgsubr
        </CharString>
        <CharString name="Adieresis">
          -7 551 760 268 callgsubr
          -268 91 268 callgsubr
          -76 -487 175 callgsubr
        </CharString>
        <CharString name="Agrave">
          -7 383 670 rmoveto
          -139 144 311 callsubr
          164 -144 rlineto
          -75 -488 175 callgsubr
        </CharString>
        <CharString name="Amacron">
          -7 535 728 269 callgsubr
          -328 -488 -5 callgsubr
        </CharString>
        <CharString name="Aogonek">
          -7 207 182 115 callgsubr
          30 -360 98 callsubr
          89 5 hlineto
          -241 622 rlineto
          -151 hlineto
          -240 -622 rlineto
          108 192 callgsubr
          46 -123 rlineto
          -35 -77 vlineto
          80 callsubr
        </CharString>
        <CharString name="Aring">
          -7 258 766 58 callgsubr
          -46 -487 -5 callgsubr
        </CharString>
        <CharString name="Atilde">
          -7 230 725 rmoveto
          15 5 8 13 vhcurveto
          1 callsubr
          vlineto
          -23 -487 -5 callgsubr
        </CharString>
        <CharString name="B">
          -1 95 8 callsubr
          -622 440 vlineto
          -24 callgsubr
          178 vlineto
          34 -17 16 -29 3 vhcurveto
          29 2 17 20 34 vvcurveto
          177 -41 callsubr
          -28 -534 rmoveto
          -24 -7 5 callsubr
          -269 223 271 -72 callsubr
          121 vmoveto
          -46 callsubr
          -271 222 271 -72 callsubr
          endchar
        </CharString>
        <CharString name="C">
          -47 595 410 1 callgsubr
        </CharString>
        <CharString name="CR">
          -700 endchar
        </CharString>
        <CharString name="Cacute">
          -49 551 815 52 callgsubr
          207 -260 1 callgsubr
        </CharString>
        <CharString name="Ccaron">
          -49 400 669 rmoveto
          -3 callsubr
          169 -145 rlineto
          310 -259 1 callgsubr
        </CharString>
        <CharString name="Ccedilla">
          -49 281 179 callsubr
          313 459 1 callgsubr
        </CharString>
        <CharString name="D">
          1 505 225 callsubr
          -269 504 269 -72 callsubr
          -410 90 rmoveto
          -622 442 vlineto
          153 callgsubr
        </CharString>
        <CharString name="Dcaron">
          2 401 669 rmoveto
          -3 callsubr
          169 -145 rlineto
          221 -579 47 callsubr
          -269 504 269 -72 callsubr
          -410 90 rmoveto
          -622 442 vlineto
          153 callgsubr
        </CharString>
        <CharString name="Dcroat">
          55 559 225 callsubr
          -268 224 188 61 -188 219 268 -72 callsubr
          -409 90 rmoveto
          -278 -56 -61 56 -283 440 vlineto
          153 callgsubr
        </CharString>
        <CharString name="E">
          -106 207 59 rmoveto
          230 84 callsubr
          vlineto
          endchar
        </CharString>
        <CharString name="Eacute">
          -107 542 814 52 callgsubr
          -172 -610 rmoveto
          230 84 callsubr
          vlineto
          endchar
        </CharString>
        <CharString name="Ecaron">
          -107 389 669 rmoveto
          -3 callsubr
          169 -145 rlineto
          -67 -380 rmoveto
          84 callsubr
          -341 hlineto
          endchar
        </CharString>
        <CharString name="Ecircumflex">
          -107 320 768 rmoveto
          48 callsubr
          -169 -146 rlineto
          118 hlineto
          -5 -380 rmoveto
          84 callsubr
          -341 hlineto
          endchar
        </CharString>
        <CharString name="Edieresis">
          -97 517 760 268 callgsubr
          -268 91 268 callgsubr
          -42 -610 rmoveto
          230 285 59 -285 215 326 59 -439 -622 453 59 vlineto
          endchar
        </CharString>
        <CharString name="Edotaccent">
          -107 395 767 322 callgsubr
          -189 -610 rmoveto
          230 84 callsubr
          vlineto
          endchar
        </CharString>
        <CharString name="Egrave">
          -107 370 669 157 callsubr
          -62 -610 rmoveto
          230 84 callsubr
          vlineto
          endchar
        </CharString>
        <CharString name="Emacron">
          -107 506 727 269 callgsubr
          -300 -610 rmoveto
          230 84 callsubr
          vlineto
          endchar
        </CharString>
        <CharString name="Eogonek">
          -107 404 303 callgsubr
          148 -341 230 286 59 -286 215 327 59 -439 -622 349 294 callgsubr
          hlineto
          endchar
        </CharString>
        <CharString name="Eth">
          17 522 225 callsubr
          -267 224 187 61 -187 219 267 -72 callsubr
          -409 90 rmoveto
          -278 -55 -61 55 -283 441 vlineto
          153 callgsubr
        </CharString>
        <CharString name="Euro">
          -1 643 410 rmoveto
          133 -41 callsubr
          -353 86 callgsubr
          -138 -95 -59 95 -69 -95 -59 95 -139 -74 callgsubr
          353 -36 callsubr
          133 -111 -122 -38 callsubr
          -227 -88 callgsubr
          128 171 59 -171 69 171 59 -171 127 -84 callsubr
          227 -72 callsubr
          -122 vlineto
          endchar
        </CharString>
        <CharString name="F">
          -136 535 362 callsubr
          -440 -622 112 265 289 59 -289 239 vlineto
          endchar
        </CharString>
        <CharString name="G">
          -28 596 431 33 callgsubr
        </CharString>
        <CharString name="Gbreve">
          -29 464 669 78 callgsubr
          390 -238 33 callgsubr
        </CharString>
        <CharString name="H">
          49 544 8 callsubr
          -281 -339 281 -110 -622 110 282 339 -282 111 622 vlineto
          endchar
        </CharString>
        <CharString name="I">
          -380 104 8 callsubr
          -622 112 622 vlineto
          endchar
        </CharString>
        <CharString name="Iacute">
          210 callgsubr
          -101 47 99 callsubr
          endchar
        </CharString>
        <CharString name="Icircumflex">
          210 callgsubr
          -278 48 rmoveto
          118 hlineto
          109 99 48 callsubr
          endchar
        </CharString>
        <CharString name="Idieresis">
          -385 103 8 callsubr
          -622 111 622 vlineto
          -259 138 240 callgsubr
        </CharString>
        <CharString name="Idotaccent">
          -404 94 503 rmoveto
          -503 110 503 vlineto
          -118 145 rmoveto
          -98 125 98 vlineto
          endchar
        </CharString>
        <CharString name="Igrave">
          210 callgsubr
          -156 192 182 callgsubr
        </CharString>
        <CharString name="Imacron">
          210 callgsubr
          -238 47 293 callgsubr
          endchar
        </CharString>
        <CharString name="Iogonek">
          -385 67 303 callgsubr
          89 5 622 -112 -622 3 294 callgsubr
          hlineto
          endchar
        </CharString>
        <CharString name="J">
          -100 37 222 rmoveto
          -143 -74 callgsubr
          320 171 callsubr
          -111 -532 vlineto
          -26 -5 -5 -26 120 callsubr
          132 vlineto
          endchar
        </CharString>
        <CharString name="K">
          -21 517 8 callsubr
          276 callgsubr
          -551 hmoveto
          -622 107 622 vlineto
          endchar
        </CharString>
        <CharString name="L">
          -153 204 59 223 callsubr
        </CharString>
        <CharString name="Lacute">
          -155 375 814 52 callgsubr
          -8 -610 223 callsubr
        </CharString>
        <CharString name="Lcaron">
          -155 377 815 rmoveto
          -117 hlineto
          -110 -98 -109 98 rlineto
          -118 hlineto
          169 -145 rlineto
          116 hlineto
          -5 -611 223 callsubr
        </CharString>
        <CharString name="Lslash">
          -151 205 59 rmoveto
          224 vlineto
          167 56 rlineto
          62 vlineto
          -167 -56 rlineto
          277 -109 -313 vlineto
          -122 -41 rlineto
          -62 vlineto
          122 41 rlineto
          -247 425 59 vlineto
          endchar
        </CharString>
        <CharString name="M">
          174 478 135 rmoveto
          205 362 rlineto
          -497 97 622 -119 vlineto
          -228 -404 -220 404 rlineto
          -118 -622 96 497 hlineto
          198 -362 rlineto
          endchar
        </CharString>
        <CharString name="N">
          24 529 141 callsubr
          endchar
        </CharString>
        <CharString name="NULL">
          -700 endchar
        </CharString>
        <CharString name="Nacute">
          23 324 667 99 callsubr
          64 -190 239 callgsubr
        </CharString>
        <CharString name="Ncaron">
          23 312 669 rmoveto
          116 hlineto
          -3 callsubr
          385 -192 239 callgsubr
        </CharString>
        <CharString name="Ntilde">
          23 528 141 callsubr
          -374 126 rmoveto
          1 callsubr
          56 vlineto
          15 5 8 13 vhcurveto
          endchar
        </CharString>
        <CharString name="O">
          108 callsubr
          endchar
        </CharString>
        <CharString name="OE">
          262 483 225 callsubr
          -226 -88 callgsubr
          442 -84 callsubr
          226 -72 callsubr
          114 -473 rmoveto
          230 264 59 -264 215 297 59 -384 -16 vlineto
          11 -14 -19 5 -26 hhcurveto
          -287 4 callgsubr
          287 hlineto
          26 19 5 10 14 hvcurveto
          -15 396 59 vlineto
          endchar
        </CharString>
        <CharString name="Oacute">
          -26 296 669 99 callsubr
          153 -271 -33 callsubr
          endchar
        </CharString>
        <CharString name="Ocircumflex">
          -26 110 669 rmoveto
          118 hlineto
          109 99 48 callsubr
          310 -272 -33 callsubr
          endchar
        </CharString>
        <CharString name="Odieresis">
          -30 589 543 10 callgsubr
          -224 -88 callgsubr
          442 -84 callsubr
          224 -72 callsubr
          -77 228 313 callsubr
        </CharString>
        <CharString name="Ograve">
          108 callsubr
          -228 282 182 callgsubr
        </CharString>
        <CharString name="Ohungarumlaut">
          -30 368 callgsubr
          -464 -74 callgsubr
          346 -36 callsubr
          464 -41 callsubr
          -30 -90 rmoveto
          -442 -38 callsubr
          -224 -88 callgsubr
          442 -84 callsubr
          224 -72 callsubr
          -135 299 rmoveto
          277 callsubr
          103 hmoveto
          279 callsubr
          endchar
        </CharString>
        <CharString name="Omacron">
          -26 152 670 293 callgsubr
          437 -185 -33 callsubr
          endchar
        </CharString>
        <CharString name="Oslash">
          6 505 87 47 callsubr
          -244 hlineto
          -7 -6 0 2 -4 hvcurveto
          292 414 rlineto
          -306 63 282 callgsubr
          244 hlineto
          9 7 -1 -2 5 hvcurveto
          -296 -417 rlineto
          429 500 rmoveto
          -75 hlineto
          -17 -24 rlineto
          -3 hlineto
          -360 86 callgsubr
          -464 vlineto
          -25 6 -19 11 -13 vhcurveto
          -32 -46 rlineto
          76 hlineto
          17 24 rlineto
          1 hlineto
          360 -36 callsubr
          464 vlineto
          25 -6 18 -11 13 vhcurveto
          endchar
        </CharString>
        <CharString name="Otilde">
          108 callsubr
          -254 216 rmoveto
          1 callsubr
          56 vlineto
          15 5 8 13 vhcurveto
          endchar
        </CharString>
        <CharString name="P">
          -27 508 293 47 callsubr
          -273 301 273 -72 callsubr
          -413 90 rmoveto
          -622 109 203 334 vlineto
          -24 callgsubr
          261 88 callgsubr
        </CharString>
        <CharString name="Q">
          -60 177 532 282 callgsubr
          225 -72 callsubr
          -442 -38 callsubr
          -225 -88 callgsubr
          396 -187 rmoveto
          -117 97 rlineto
          37 -36 callsubr
          464 vlineto
          45 callsubr
          182 hlineto
          112 -97 rlineto
          endchar
        </CharString>
        <CharString name="R">
          -7 204 563 57 callgsubr
        </CharString>
        <CharString name="Racute">
          -8 560 812 52 callgsubr
          -193 -104 57 callgsubr
        </CharString>
        <CharString name="Rcaron">
          -8 409 668 rmoveto
          -3 callsubr
          169 -145 rlineto
          -90 -105 57 callgsubr
        </CharString>
        <CharString name="S">
          -46 470 90 69 callsubr
        </CharString>
        <CharString name="Sacute">
          -46 286 667 99 callsubr
          44 -722 69 callsubr
        </CharString>
        <CharString name="Scaron">
          -46 274 668 rmoveto
          116 hlineto
          -3 callsubr
          365 -723 69 callsubr
        </CharString>
        <CharString name="T">
          -130 561 622 305 callgsubr
        </CharString>
        <CharString name="Tcaron">
          -129 345 668 rmoveto
          -3 callsubr
          169 -145 rlineto
          332 -46 305 callgsubr
        </CharString>
        <CharString name="Thorn">
          -27 499 192 47 callsubr
          -263 300 263 -72 callsubr
          -294 90 rmoveto
          102 -110 -622 110 102 323 vlineto
          -24 callgsubr
          260 88 callgsubr
        </CharString>
        <CharString name="U">
          165 callgsubr
          endchar
        </CharString>
        <CharString name="Uacute">
          -10 299 669 99 callsubr
          -244 -192 10 callsubr
          endchar
        </CharString>
        <CharString name="Ucircumflex">
          -10 116 669 rmoveto
          118 hlineto
          109 99 48 callsubr
          -90 -193 10 callsubr
          endchar
        </CharString>
        <CharString name="Udieresis">
          -10 496 8 callsubr
          170 callsubr
          -239 -88 callgsubr
          532 -110 -543 364 callgsubr
          26 26 53 hvcurveto
          543 vlineto
          -468 138 240 callgsubr
        </CharString>
        <CharString name="Ugrave">
          165 callgsubr
          73 724 182 callgsubr
        </CharString>
        <CharString name="Uhungarumlaut">
          -14 195 8 callsubr
          -110 -543 261 callsubr
          362 171 callsubr
          -109 170 callsubr
          -239 -88 callgsubr
          365 739 rmoveto
          357 callsubr
          175 162 rlineto
          -333 hmoveto
          277 callsubr
          endchar
        </CharString>
        <CharString name="Umacron">
          165 callgsubr
          -38 579 293 callgsubr
          endchar
        </CharString>
        <CharString name="Uogonek">
          -10 496 8 callsubr
          170 callsubr
          -239 -88 callgsubr
          532 -110 -543 -74 callgsubr
          127 195 callgsubr
          130 171 callsubr
          vlineto
          endchar
        </CharString>
        <CharString name="Uring">
          -10 511 775 125 callgsubr
          -243 -144 10 callsubr
          endchar
        </CharString>
        <CharString name="V">
          -5 552 8 callsubr
          -205 -548 -203 548 rlineto
          -111 hlineto
          240 -622 rlineto
          148 hlineto
          241 622 rlineto
          endchar
        </CharString>
        <CharString name="W">
          364 922 8 callsubr
          -176 -545 -156 545 rlineto
          -117 hlineto
          -158 -545 -170 545 rlineto
          -111 hlineto
          209 -622 rlineto
          143 hlineto
          145 501 145 -501 rlineto
          144 hlineto
          210 622 rlineto
          endchar
        </CharString>
        <CharString name="X">
          -24 401 320 rmoveto
          230 302 rlineto
          -118 hlineto
          -175 -235 -177 235 rlineto
          -121 hlineto
          235 -306 -245 -316 rlineto
          118 hlineto
          190 249 187 -249 rlineto
          121 hlineto
          endchar
        </CharString>
        <CharString name="Y">
          -55 636 622 209 callsubr
          -419 rlineto
          -203 110 203 vlineto
          endchar
        </CharString>
        <CharString name="Yacute">
          -56 558 814 52 callgsubr
          242 -47 209 callsubr
          -419 rlineto
          -203 110 203 vlineto
          endchar
        </CharString>
        <CharString name="Ydieresis">
          -55 262 760 268 callgsubr
          268 91 268 callgsubr
          106 -47 209 callsubr
          -420 rlineto
          -202 110 202 vlineto
          endchar
        </CharString>
        <CharString name="Z">
          -68 576 622 152 callgsubr
        </CharString>
        <CharString name="Zacute">
          -68 549 814 52 callgsubr
          191 150 callgsubr
        </CharString>
        <CharString name="Zcaron">
          -68 382 669 rmoveto
          -3 callsubr
          169 -145 rlineto
          310 150 callgsubr
        </CharString>
        <CharString name="Zdotaccent">
          -68 395 767 322 callgsubr
          181 150 callgsubr
        </CharString>
        <CharString name="a">
          -66 214 59 -78 callgsubr
        </CharString>
        <CharString name="aacute">
          -67 533 677 52 callgsubr
          -156 -473 -78 callgsubr
        </CharString>
        <CharString name="abreve">
          -67 443 532 78 callgsubr
          29 -473 -78 callgsubr
        </CharString>
        <CharString name="acircumflex">
          -67 314 631 rmoveto
          48 callsubr
          -169 -146 rlineto
          118 hlineto
          8 -473 -78 callgsubr
        </CharString>
        <CharString name="acute">
          -86 169 506 99 callsubr
          endchar
        </CharString>
        <CharString name="adieresis">
          -67 521 8 callsubr
          -139 -90 139 hlineto
          -268 90 rmoveto
          -139 -90 139 hlineto
          -40 -473 -78 callgsubr
        </CharString>
        <CharString name="ae">
          274 214 59 283 callsubr
          72 vlineto
          241 54 rlineto
          -127 vlineto
          -23 -10 -7 -23 vhcurveto
          369 367 rmoveto
          -59 callsubr
          -117 -261 117 -84 callsubr
          326 -207 rmoveto
          1 9 186 -41 callsubr
          -273 hlineto
          -44 -18 -18 -20 -6 hvcurveto
          20 -6 -21 18 -47 hhcurveto
          -247 86 callgsubr
          -97 107 86 -84 callsubr
          177 hlineto
          23 10 -6 -24 hvcurveto
          -117 vlineto
          -348 -79 rlineto
          -121 -74 callgsubr
          247 hlineto
          47 21 18 20 6 hvcurveto
          -20 6 18 -18 44 hhcurveto
          270 -36 callsubr
          61 -105 -50 -38 callsubr
          -196 142 callsubr
          vlineto
          endchar
        </CharString>
        <CharString name="agrave">
          -67 376 532 157 callsubr
          -61 -473 -78 callgsubr
        </CharString>
        <CharString name="amacron">
          -67 492 591 269 callgsubr
          -279 -474 -78 callgsubr
        </CharString>
        <CharString name="ampersand">
          144 212 59 283 callsubr
          61 vlineto
          31 9 16 34 12 vhcurveto
          103 38 229 -189 rlineto
          -202 277 rmoveto
          -62 51 -30 19 47 vvcurveto
          79 -84 callsubr
          196 -72 callsubr
          -86 vlineto
          -40 -16 -18 -44 -16 vhcurveto
          -104 -38 rlineto
          454 -379 rmoveto
          -64 53 rlineto
          27 12 13 25 38 vvcurveto
          145 -87 -138 vlineto
          -19 -3 -8 -12 -3 vhcurveto
          -265 222 119 44 rlineto
          60 22 28 32 72 vvcurveto
          91 -41 callsubr
          -312 86 callgsubr
          -101 vlineto
          -59 40 -26 58 -48 vhcurveto
          10 -9 -113 -41 rlineto
          -56 -20 -20 -23 -53 vvcurveto
          -84 -74 callgsubr
          474 hlineto
          54 -45 rlineto
          endchar
        </CharString>
        <CharString name="aogonek">
          -67 213 221 callgsubr
          -5 -237 98 callsubr
          89 3 485 -107 -31 hlineto
          -57 callgsubr
          -66 -77 vlineto
          80 callsubr
        </CharString>
        <CharString name="approxequal">
          84 179 293 rmoveto
          57 vlineto
          32 369 callgsubr
          83 -56 hlineto
          -31 -14 366 callgsubr
          445 160 rmoveto
          -104 -58 hlineto
          -32 -14 -11 -38 vhcurveto
          -125 -44 101 -120 hhcurveto
          -111 hlineto
          -55 -23 -27 -49 hvcurveto
          -86 55 vlineto
          -39 -7 -16 -27 -41 vvcurveto
          -86 104 60 vlineto
          31 369 callgsubr
          108 hlineto
          55 24 30 48 hvcurveto
          86 -51 vlineto
          35 9 16 26 39 vvcurveto
          endchar
        </CharString>
        <CharString name="aring">
          -67 224 629 58 callgsubr
          -6 -473 -78 callgsubr
        </CharString>
        <CharString name="asciicircum">
          -52 260 668 rmoveto
          -209 -340 rlineto
          107 hlineto
          167 274 165 -274 rlineto
          108 hlineto
          -210 340 rlineto
          endchar
        </CharString>
        <CharString name="asciitilde">
          83 231 270 rmoveto
          120 65 -102 106 hhcurveto
          108 hlineto
          55 23 30 48 hvcurveto
          86 -103 -59 vlineto
          -31 -15 366 callgsubr
          -111 hlineto
          -55 -22 -28 -49 hvcurveto
          -86 103 60 vlineto
          31 14 10 39 vhcurveto
          endchar
        </CharString>
        <CharString name="asterisk">
          -223 196 652 rmoveto
          -64 vlineto
          -26 4 -23 5 -17 vhcurveto
          -17 10 -20 11 -25 8 -60 20 rcurveline
          -27 -83 61 -20 22 -6 22 -5 21 -1 rlinecurve
          -15 -12 -17 -16 -15 -21 -37 -51 rcurveline
          70 -51 37 51 15 21 11 21 6 17 rlinecurve
          7 -17 10 -21 15 -22 38 -52 rcurveline
          70 51 -38 52 -14 21 -17 16 -14 12 rlinecurve
          18 24 3 8 24 hvcurveto
          61 20 -26 83 -61 -21 -24 -8 -21 -10 -15 -11 rlinecurve
          5 19 4 23 27 vvcurveto
          64 vlineto
          endchar
        </CharString>
        <CharString name="at">
          413 408 426 rmoveto
          -50 -24 -24 -51 hvcurveto
          -198 vlineto
          -51 24 -24 50 vhcurveto
          190 hlineto
          30 24 11 32 5 hvcurveto
          -62 305 vlineto
          51 24 24 51 hvcurveto
          354 vlineto
          51 -24 24 -51 vhcurveto
          -801 hlineto
          -51 -24 -24 -51 hvcurveto
          -485 vlineto
          -50 24 -25 51 vhcurveto
          717 61 -666 hlineto
          -25 -5 5 24 hvcurveto
          454 vlineto
          25 5 5 25 vhcurveto
          701 hlineto
          24 5 -5 -25 hvcurveto
          -325 vlineto
          -24 -5 -5 -24 vhcurveto
          -167 308 -96 -31 hlineto
          21 -7 -20 10 -25 hhcurveto
          -168 -88 rmoveto
          24 4 5 25 vhcurveto
          159 hlineto
          22 10 -8 -24 hvcurveto
          -166 vlineto
          -24 -10 -8 -22 vhcurveto
          -159 hlineto
          -25 -4 5 24 hvcurveto
          endchar
        </CharString>
        <CharString name="atilde">
          -67 188 588 rmoveto
          15 5 8 13 vhcurveto
          1 callsubr
          vlineto
          25 -473 -78 callgsubr
        </CharString>
        <CharString name="b">
          -66 452 225 callsubr
          -194 hlineto
          -24 -10 9 25 hvcurveto
          24 -1 242 1 33 350 callsubr
          24 vhcurveto
          194 -72 callsubr
          -204 90 333 callgsubr
          33 vlineto
          -23 8 19 -10 29 hhcurveto
          231 314 callgsubr
        </CharString>
        <CharString name="backslash">
          -301 -87 699 rmoveto
          414 -835 rlineto
          103 hlineto
          -414 835 rlineto
          endchar
        </CharString>
        <CharString name="bar">
          -407 95 739 rmoveto
          -857 103 857 vlineto
          endchar
        </CharString>
        <CharString name="braceleft">
          -291 287 608 rmoveto
          35 8 18 34 vhcurveto
          116 59 -149 hlineto
          -85 -33 -34 -80 hvcurveto
          -220 vlineto
          -76 -26 -32 -63 vhcurveto
          -17 -59 17 hlineto
          63 26 -33 -75 hvcurveto
          -219 vlineto
          -79 33 -34 85 vhcurveto
          149 59 -116 hlineto
          -34 -8 18 35 hvcurveto
          235 vlineto
          68 -26 48 -54 5 vhcurveto
          54 6 26 46 70 vvcurveto
          endchar
        </CharString>
        <CharString name="braceright">
          -289 124 369 rmoveto
          -70 26 -46 55 -6 vhcurveto
          -55 -5 -26 -48 -68 vvcurveto
          -235 vlineto
          -35 -8 -18 -34 vhcurveto
          -116 -59 149 hlineto
          85 33 34 79 hvcurveto
          219 vlineto
          75 27 33 63 vhcurveto
          16 59 -16 hlineto
          -63 -27 32 76 hvcurveto
          220 vlineto
          80 -33 34 -85 vhcurveto
          -149 -59 116 hlineto
          34 8 -18 -35 hvcurveto
          endchar
        </CharString>
        <CharString name="bracketleft">
          -372 367 661 rmoveto
          59 -273 -940 273 59 -163 822 vlineto
          endchar
        </CharString>
        <CharString name="bracketright">
          -372 234 720 rmoveto
          -273 -59 163 -822 -163 -59 273 hlineto
          endchar
        </CharString>
        <CharString name="breve">
          -86 418 646 rmoveto
          128 callgsubr
          -161 -88 callgsubr
          51 -97 -60 -74 callgsubr
          259 hlineto
          349 callsubr
          vlineto
          endchar
        </CharString>
        <CharString name="brokenbar">
          -425 87 249 rmoveto
          -367 102 367 vlineto
          123 vmoveto
          367 -102 -367 vlineto
          endchar
        </CharString>
        <CharString name="bullet">
          -253 224 450 rmoveto
          -80 -65 -59 -72 -72 65 -59 80 80 65 59 72 72 -65 59 -80 hvcurveto
          endchar
        </CharString>
        <CharString name="c">
          -105 538 324 6 callgsubr
        </CharString>
        <CharString name="cacute">
          -107 532 677 52 callgsubr
          169 -208 6 callgsubr
        </CharString>
        <CharString name="caron">
          -86 249 505 rmoveto
          116 hlineto
          -3 callsubr
          endchar
        </CharString>
        <CharString name="ccaron">
          -107 360 532 rmoveto
          -3 callsubr
          169 -145 rlineto
          293 -208 6 callgsubr
        </CharString>
        <CharString name="ccedilla">
          -107 253 179 callsubr
          284 373 6 callgsubr
        </CharString>
        <CharString name="cedilla">
          -86 329 179 callsubr
          endchar
        </CharString>
        <CharString name="cent">
          -107 537 324 rmoveto
          82 -41 callsubr
          -102 76 -105 -76 -97 107 callgsubr
          97 -77 105 77 102 23 callgsubr
        </CharString>
        <CharString name="circumflex">
          -86 80 506 rmoveto
          118 hlineto
          109 99 48 callsubr
          endchar
        </CharString>
        <CharString name="colon">
          -461 59 75 rmoveto
          120 119 -120 hlineto
          97 vmoveto
          120 119 -120 hlineto
          endchar
        </CharString>
        <CharString name="comma">
          -471 59 -138 rmoveto
          40 hlineto
          80 196 rlineto
          67 -120 vlineto
          endchar
        </CharString>
        <CharString name="commaaccent">
          -86 250 -229 151 callsubr
        </CharString>
        <CharString name="copyright">
          350 966 341 rmoveto
          183 -65 98 -176 vhcurveto
          -400 hlineto
          -176 -65 -98 -183 hvcurveto
          -67 vlineto
          -183 65 -91 176 vhcurveto
          400 hlineto
          176 65 91 183 hvcurveto
          -630 -214 rmoveto
          -120 -36 83 127 hvcurveto
          75 vlineto
          127 36 92 120 vhcurveto
          378 hlineto
          120 36 -92 -127 hvcurveto
          -75 vlineto
          -127 -36 -83 -120 vhcurveto
          -84 180 47 callsubr
          -146 -88 callgsubr
          153 -84 callsubr
          146 -72 callsubr
          -29 90 40 -41 callsubr
          -231 86 callgsubr
          -175 -74 callgsubr
          231 -36 callsubr
          40 -90 vlineto
          endchar
        </CharString>
        <CharString name="currency">
          28 255 169 rmoveto
          -42 -11 6 42 hvcurveto
          158 vlineto
          42 11 10 42 vhcurveto
          225 hlineto
          40 13 -10 -42 hvcurveto
          -158 vlineto
          -42 -13 -6 -40 vhcurveto
          144 218 rmoveto
          18 -2 15 -5 13 vhcurveto
          46 46 -63 64 -59 -59 rlineto
          1 -9 -10 1 -10 hhcurveto
          -291 hlineto
          -12 -11 -1 -1 -10 hvcurveto
          -60 59 -63 -64 51 -50 rlineto
          -4 -12 -2 -14 -16 vvcurveto
          -177 vlineto
          -16 2 -14 4 -12 vhcurveto
          -51 -50 63 -63 59 58 rlineto
          -2 10 11 -1 13 hhcurveto
          291 hlineto
          11 10 1 1 9 hvcurveto
          58 -57 63 63 -46 46 rlineto
          5 13 2 15 18 vvcurveto
          endchar
        </CharString>
        <CharString name="d">
          -66 214 221 callgsubr
          34 610 rmoveto
          -215 vlineto
          201 callsubr
          vlineto
          endchar
        </CharString>
        <CharString name="dagger">
          -98 522 462 rmoveto
          -165 160 -110 -160 -167 -59 167 -520 110 520 165 hlineto
          endchar
        </CharString>
        <CharString name="daggerdbl">
          -92 525 394 rmoveto
          59 -166 169 -109 -169 -168 -59 168 -317 -168 -59 168 -171 109 171 166 59 -166 317 vlineto
          endchar
        </CharString>
        <CharString name="dcaron">
          -59 441 454 rmoveto
          201 callsubr
          -107 vlineto
          197 hmoveto
          -174 35 vlineto
          70 126 rlineto
          48 vlineto
          -530 -610 rmoveto
          14 callsubr
          194 hlineto
          24 10 -9 -25 hvcurveto
          -299 149 callgsubr
          endchar
        </CharString>
        <CharString name="dcroat">
          -66 214 221 callgsubr
          209 540 rmoveto
          -68 70 -107 -70 -240 -59 240 -86 hlineto
          -57 callgsubr
          -31 107 540 68 vlineto
          endchar
        </CharString>
        <CharString name="degree">
          -135 506 545 rmoveto
          52 -10 callgsubr
          -291 hlineto
          -52 -25 -25 -52 hvcurveto
          -137 vlineto
          -52 25 -25 52 vhcurveto
          291 hlineto
          53 25 25 52 hvcurveto
          -100 226 callgsubr
          -183 -88 callgsubr
          116 -84 callsubr
          183 -72 callsubr
          endchar
        </CharString>
        <CharString name="dieresis">
          -86 371 629 315 callgsubr
        </CharString>
        <CharString name="divide">
          -45 369 callsubr
          215 156 rmoveto
          -84 110 84 vlineto
          -110 -306 rmoveto
          -85 110 85 vlineto
          endchar
        </CharString>
        <CharString name="dollar">
          -47 214 343 283 callsubr
          158 -84 callsubr
          220 -72 callsubr
          -90 109 101 -41 callsubr
          -119 92 -106 -92 -118 131 callgsubr
          286 -72 callsubr
          -163 -38 callsubr
          -222 -88 callgsubr
          90 -110 -101 -74 callgsubr
          116 -91 106 91 122 156 callsubr
          endchar
        </CharString>
        <CharString name="dotaccent">
          -86 245 531 rmoveto
          125 98 -125 hlineto
          endchar
        </CharString>
        <CharString name="dotlessi">
          -405 94 485 rmoveto
          -485 107 485 vlineto
          endchar
        </CharString>
        <CharString name="dvDDH_DDHA">
          89 651 104 callgsubr
          158 59 -829 -59 559 -78 -350 vlineto
          -53 -25 25 callgsubr
          -189 vlineto
          -35 351 callsubr
          -33 vvcurveto
          -190 vlineto
          -53 25 -24 53 vhcurveto
          411 hlineto
          53 25 24 53 hvcurveto
          57 -47 callgsubr
          -110 -61 50 hlineto
          26 6 -7 -24 hvcurveto
          -30 43 callsubr
          -284 -2 callgsubr
          170 16 callsubr
          344 -102 callsubr
          56 -47 callgsubr
          -110 -61 50 31 callsubr
          -29 -62 callgsubr
          -284 -43 callgsubr
          170 vlineto
          26 6 7 26 vhcurveto
          endchar
        </CharString>
        <CharString name="dvDD_GA">
          43 617 104 callgsubr
          146 59 -783 -59 524 -78 -320 vlineto
          -95 callgsubr
          188 callgsubr
          316 hlineto
          26 5 -6 -26 hvcurveto
          -121 -38 callsubr
          -80 -27 hlineto
          -167 22 rlineto
          -22 -36 5 22 hvcurveto
          43 vlineto
          -3 -77 -1 -3 vhcurveto
          -8 -74 rlineto
          -46 22 -30 46 vhcurveto
          20 hlineto
          -8 -22 rlineto
          -23 -5 -16 -22 vhcurveto
          -8 -19 -3 7 vhcurveto
          35 -51 55 8 rlineto
          46 18 23 46 hvcurveto
          -2 -1 22 24 -1 hvcurveto
          121 hlineto
          4 2 15 15 2 hvcurveto
          26 -237 107 237 5 -43 callsubr
          146 263 callsubr
        </CharString>
        <CharString name="dvMatraI.a33">
          -81 callsubr
          2036 hlineto
          26 6 -34 callsubr
          -2168 -99 callsubr
        </CharString>
        <CharString name="dvMatraI.a34">
          -81 callsubr
          2083 hlineto
          26 5 -34 callsubr
          -2214 -99 callsubr
        </CharString>
        <CharString name="dvMatraI.a35">
          -81 callsubr
          2129 40 callsubr
          -2261 -99 callsubr
        </CharString>
        <CharString name="dvMatraI.a36">
          -81 callsubr
          2175 hlineto
          26 5 -34 callsubr
          -2306 -99 callsubr
        </CharString>
        <CharString name="dvMatraI.a37">
          -81 callsubr
          2221 51 callsubr
          -2353 -99 callsubr
        </CharString>
        <CharString name="dvMatraI.a38">
          -81 callsubr
          2267 hlineto
          26 5 -34 callsubr
          -2398 -99 callsubr
        </CharString>
        <CharString name="dvMatraI.a39">
          -81 callsubr
          2313 51 callsubr
          -2445 -99 callsubr
        </CharString>
        <CharString name="dvMatraI.a40">
          -81 callsubr
          2359 hlineto
          26 5 -34 callsubr
          -2490 -99 callsubr
        </CharString>
        <CharString name="dvMatraI.a41">
          -81 callsubr
          2405 hlineto
          26 5 -34 callsubr
          -2536 -99 callsubr
        </CharString>
        <CharString name="dvMatraI.a42">
          -81 callsubr
          2451 40 callsubr
          -2583 -99 callsubr
        </CharString>
        <CharString name="dvMatraI.a43">
          -81 callsubr
          2497 hlineto
          26 5 -34 callsubr
          -2628 -99 callsubr
        </CharString>
        <CharString name="dvMatraI.a44">
          -81 callsubr
          2544 51 callsubr
          -2676 -99 callsubr
        </CharString>
        <CharString name="dvMatraI.a45">
          -81 callsubr
          2589 hlineto
          26 6 -34 callsubr
          -2721 -99 callsubr
        </CharString>
        <CharString name="dvMatraI.a46">
          -81 callsubr
          2636 hlineto
          26 5 -34 callsubr
          -2767 -99 callsubr
        </CharString>
        <CharString name="dvMatraI.a47">
          -81 callsubr
          2681 hlineto
          26 6 -34 callsubr
          -2813 -99 callsubr
        </CharString>
        <CharString name="dvMatraI.a48">
          -81 callsubr
          2728 hlineto
          26 5 -34 callsubr
          -2859 -99 callsubr
        </CharString>
        <CharString name="dvMatraI.a49">
          391 8 callsubr
          -149 109 hlineto
          227 callgsubr
          2774 51 callsubr
          -2905 86 callgsubr
          -121 -148 -59 148 -563 113 -83 callsubr
        </CharString>
        <CharString name="dvMatraI.a50">
          3236 668 rmoveto
          75 vlineto
          360 callgsubr
          -2951 229 callsubr
          -121 -82 callgsubr
          59 -149 109 107 callsubr
          2819 158 callgsubr
          vlineto
          endchar
        </CharString>
        <CharString name="dvNG_GA">
          162 703 309 rmoveto
          89 83 -89 hlineto
          -723 230 rmoveto
          -59 521 -78 -321 vlineto
          -95 callgsubr
          -84 -92 callsubr
          315 hlineto
          -48 callsubr
          -115 43 callsubr
          -246 -2 callgsubr
          71 -112 -83 -92 callsubr
          7 -92 hlineto
          100 callsubr
          -29 -59 90 -102 callsubr
          104 152 -237 107 237 5 vlineto
          357 callgsubr
          vlineto
          360 callgsubr
          -315 -2 callgsubr
          60 20 callgsubr
          367 137 269 59 hlineto
          endchar
        </CharString>
        <CharString name="dvNG_MA">
          399 778 393 rmoveto
          -85 -83 85 hlineto
          85 -287 rmoveto
          -233 215 hlineto
          360 callgsubr
          -307 -2 callgsubr
          47 20 callgsubr
          364 137 254 hlineto
          256 59 rmoveto
          -1139 -59 518 -78 -319 hlineto
          -95 callgsubr
          -71 -92 callsubr
          308 hlineto
          26 5 -6 -26 hvcurveto
          -87 149 callsubr
          -239 188 callsubr
          61 -112 -73 31 callgsubr
          341 -152 107 68 233 -122 107 721 218 callgsubr
        </CharString>
        <CharString name="dvNY_CA">
          847 1567 8 callsubr
          -1587 -59 1326 242 callsubr
          -384 -59 94 hlineto
          91 callsubr
          -79 -224 89 vlineto
          -12 callsubr
          103 224 -103 -92 callsubr
          377 27 callgsubr
        </CharString>
        <CharString name="dvSHA_MatraVocalicR">
          348 224 531 282 callgsubr
          202 hlineto
          26 7 -27 callsubr
          -143 vlineto
          -35 -33 rlineto
          -199 -2 callgsubr
          695 -335 rmoveto
          512 149 59 -260 -267 -222 vlineto
          8 5 3 10 16 vvcurveto
          158 vlineto
          53 -24 24 -53 vhcurveto
          -326 hlineto
          -53 -26 -24 -53 hvcurveto
          -171 299 callgsubr
          202 hlineto
          -214 -199 rlineto
          135 hlineto
          214 199 rlineto
          277 -186 -164 328 callsubr
          318 59 -245 hlineto
          186 callgsubr
          endchar
        </CharString>
        <CharString name="dvSH_VA.aSimp">
          830 207 622 rmoveto
          -101 callsubr
          980 hmoveto
          -790 -59 530 -392 hlineto
          -22 callsubr
          -251 257 callsubr
        </CharString>
        <CharString name="dvTTH_TTHA">
          87 567 279 rmoveto
          -10 callsubr
          -283 138 callsubr
          117 -105 callgsubr
          283 -36 callgsubr
          -489 vmoveto
          -10 callsubr
          -284 138 callsubr
          116 189 callsubr
          284 31 callsubr
          240 540 rmoveto
          59 -827 -59 361 -78 -152 vlineto
          335 callsubr
          152 -76 -152 hlineto
          335 callsubr
          410 -43 callsubr
          140 11 callgsubr
          -149 76 149 -43 callsubr
          140 11 callgsubr
          -149 78 hlineto
          endchar
        </CharString>
        <CharString name="dvTT_GA">
          65 627 104 callgsubr
          158 59 -805 -59 536 -78 -326 43 callgsubr
          -320 -68 callgsubr
          10 -92 hlineto
          100 callsubr
          -29 -59 87 -43 callsubr
          104 158 -237 105 237 11 vlineto
          -91 callgsubr
          167 -112 -155 43 callsubr
          -258 -88 callgsubr
          296 -105 callgsubr
          endchar
        </CharString>
        <CharString name="dvT_KH_NA">
          1810 1948 36 callsubr
          -2550 -59 877 278 callsubr
          -437 hlineto
          -84 callgsubr
          258 -348 49 callsubr
          458 274 callsubr
          1301 303 callsubr
          -260 hlineto
          -26 -6 7 24 hvcurveto
          156 16 callsubr
          230 59 -287 hlineto
          -95 callgsubr
          -179 351 callgsubr
          2 3 9 hvcurveto
          -32 9 24 -15 41 117 callsubr
        </CharString>
        <CharString name="dvT_S_NA">
          1524 1983 485 rmoveto
          -652 268 callsubr
          -205 vlineto
          -80 callgsubr
          944 hlineto
          -321 -395 -107 callgsubr
          582 196 rmoveto
          -2264 -59 925 hlineto
          -69 callgsubr
          -266 146 -451 hlineto
          -84 callgsubr
          272 -55 callsubr
          614 -124 -19 callsubr
        </CharString>
        <CharString name="e">
          -74 183 278 -63 callsubr
        </CharString>
        <CharString name="eacute">
          -77 542 677 52 callgsubr
          -196 -254 -63 callsubr
        </CharString>
        <CharString name="ecaron">
          -77 372 532 rmoveto
          -3 callsubr
          169 -145 rlineto
          -74 -254 -63 callsubr
        </CharString>
        <CharString name="ecircumflex">
          -77 319 631 rmoveto
          48 callsubr
          -169 -146 rlineto
          118 hlineto
          -28 -254 -63 callsubr
        </CharString>
        <CharString name="edieresis">
          -77 251 623 321 callgsubr
          268 91 321 callgsubr
          -365 -47 15 callgsubr
          322 -36 callsubr
          62 -104 128 callgsubr
          -207 142 callsubr
          376 172 callgsubr
          -297 -207 rmoveto
          117 -84 callsubr
          209 -72 callsubr
          -117 vlineto
          endchar
        </CharString>
        <CharString name="edotaccent">
          -77 386 630 322 callgsubr
          -204 -254 -63 callsubr
        </CharString>
        <CharString name="egrave">
          -77 380 532 157 callsubr
          -96 -254 -63 callsubr
        </CharString>
        <CharString name="eight">
          -32 368 callgsubr
          -176 vlineto
          -34 16 -19 29 -2 vhcurveto
          -29 -3 -16 -17 -34 vvcurveto
          -179 -74 callgsubr
          341 -36 callsubr
          179 333 callsubr
          176 -41 callsubr
          -311 -370 282 callgsubr
          219 -72 callsubr
          -162 -38 callsubr
          -219 -88 callgsubr
          281 284 47 callsubr
          -219 71 callgsubr
          endchar
        </CharString>
        <CharString name="ellipsis">
          51 59 hmoveto
          128 116 -128 hlineto
          255 -116 rmoveto
          128 116 -128 hlineto
          253 -116 rmoveto
          127 116 -127 hlineto
          endchar
        </CharString>
        <CharString name="emacron">
          -77 501 591 269 callgsubr
          -319 -255 -63 callsubr
        </CharString>
        <CharString name="emdash">
          216 61 262 rmoveto
          793 59 -793 hlineto
          endchar
        </CharString>
        <CharString name="endash">
          -85 61 262 rmoveto
          473 59 -473 hlineto
          endchar
        </CharString>
        <CharString name="eogonek">
          -77 182 278 -14 callgsubr
          115 195 callgsubr
          104 -36 callsubr
          62 -105 128 callgsubr
          -207 142 callsubr
          376 172 callgsubr
          endchar
        </CharString>
        <CharString name="equal">
          -9 76 362 rmoveto
          539 80 -539 hlineto
          -263 vmoveto
          539 80 -539 hlineto
          endchar
        </CharString>
        <CharString name="eth">
          -275 485 225 callsubr
          -222 -88 callgsubr
          198 -84 callsubr
          253 -1 hlineto
          104 207 rmoveto
          56 vlineto
          -117 -31 -32 30 -33 25 -25 17 rlinecurve
          -144 hlineto
          40 -24 51 -33 46 -41 -126 -34 rcurveline
          -56 vlineto
          169 45 26 -30 21 -34 11 -37 rlinecurve
          -303 86 callgsubr
          -220 -74 callgsubr
          340 -36 callsubr
          236 vlineto
          73 -34 65 -44 52 vhcurveto
          endchar
        </CharString>
        <CharString name="exclam">
          -405 84 8 callsubr
          20 -422 rlineto
          88 hlineto
          19 422 rlineto
          -124 -622 rmoveto
          323 callgsubr
          endchar
        </CharString>
        <CharString name="exclamdown">
          -419 97 284 rmoveto
          -20 -421 rlineto
          127 hlineto
          -19 421 rlineto
          -105 201 rmoveto
          -121 120 121 vlineto
          endchar
        </CharString>
        <CharString name="f">
          -319 371 607 rmoveto
          62 -167 vlineto
          -21 callgsubr
          -105 -72 -59 72 -426 107 426 139 59 -139 91 315 callsubr
        </CharString>
        <CharString name="fi">
          -73 542 485 rmoveto
          -301 91 hlineto
          -71 callgsubr
          111 62 -170 287 callgsubr
          vlineto
          -108 669 rmoveto
          -78 109 78 vlineto
          endchar
        </CharString>
        <CharString name="five">
          -58 200 379 rmoveto
          184 375 59 -488 -302 357 vlineto
          -59 callsubr
          -199 -38 callsubr
          -218 -88 callgsubr
          108 -110 -119 -74 callgsubr
          342 -36 callsubr
          221 88 callgsubr
        </CharString>
        <CharString name="fl">
          -72 435 669 rmoveto
          -184 -194 91 -84 callsubr
          112 62 -171 287 callgsubr
          669 vlineto
          endchar
        </CharString>
        <CharString name="florin">
          -229 442 601 rmoveto
          63 -110 vlineto
          -74 -25 -30 -58 -8 hvcurveto
          -13 -91 rlineto
          -105 -59 96 hlineto
          -67 -470 rlineto
          -28 -4 -5 -7 -28 hhcurveto
          -72 -62 111 hlineto
          74 24 31 57 8 hvcurveto
          70 479 rlineto
          123 59 -115 hlineto
          12 82 rlineto
          28 4 6 6 27 hhcurveto
          endchar
        </CharString>
        <CharString name="four">
          -38 643 160 rmoveto
          -113 168 -104 -168 -272 hlineto
          289 462 rlineto
          -115 hlineto
          -291 -457 rlineto
          -64 389 -101 104 101 113 vlineto
          endchar
        </CharString>
        <CharString name="fraction">
          -154 434 8 callsubr
          -413 -622 rlineto
          99 hlineto
          414 622 rlineto
          endchar
        </CharString>
        <CharString name="g">
          -74 214 59 11 callsubr
        </CharString>
        <CharString name="gbreve">
          -75 451 532 78 callgsubr
          21 -473 11 callsubr
        </CharString>
        <CharString name="germandbls">
          130 323 152 rmoveto
          -73 -74 callgsubr
          294 -36 callsubr
          132 -41 callsubr
          -240 -88 callgsubr
          55 -84 callsubr
          212 hlineto
          45 25 24 44 hvcurveto
          68 -41 callsubr
          -485 86 callgsubr
          -543 108 529 107 callsubr
          364 hlineto
          26 5 -6 -26 hvcurveto
          -37 vlineto
          -23 -6 -4 -30 vhcurveto
          -197 hlineto
          -48 -27 -24 -55 hvcurveto
          -75 -74 callgsubr
          238 -72 callsubr
          -112 -38 callsubr
          -180 -88 callgsubr
          63 vlineto
          endchar
        </CharString>
        <CharString name="grave">
          -232 294 651 182 callgsubr
        </CharString>
        <CharString name="greater">
          -28 541 311 rmoveto
          -485 -93 rlineto
          -85 vlineto
          577 133 rlineto
          92 vlineto
          -577 130 rlineto
          -85 vlineto
          endchar
        </CharString>
        <CharString name="greaterequal">
          25 67 106 rmoveto
          601 70 -601 hlineto
          512 170 rmoveto
          -512 -70 rlineto
          -81 vlineto
          600 105 rlineto
          93 vlineto
          -600 104 rlineto
          -81 vlineto
          endchar
        </CharString>
        <CharString name="guillemotleft">
          -140 228 103 rmoveto
          114 309 callgsubr
          -114 hlineto
          -127 -154 rlineto
          259 -154 rmoveto
          115 309 callgsubr
          -115 hlineto
          -127 -154 rlineto
          endchar
        </CharString>
        <CharString name="guillemotright">
          -147 457 257 rmoveto
          -127 154 rlineto
          -114 hlineto
          128 -154 -128 -154 rlineto
          114 hlineto
          -5 154 264 callsubr
        </CharString>
        <CharString name="guilsinglleft">
          -369 180 103 rmoveto
          116 309 callgsubr
          -116 hlineto
          -126 -154 rlineto
          endchar
        </CharString>
        <CharString name="guilsinglright">
          -372 280 257 264 callsubr
        </CharString>
        <CharString name="h">
          -65 248 485 333 callgsubr
          361 1 31 350 callsubr
          24 vhcurveto
          195 193 callgsubr
          106 406 88 callgsubr
        </CharString>
        <CharString name="hungarumlaut">
          -86 464 668 rmoveto
          279 callsubr
          -332 hmoveto
          277 callsubr
          endchar
        </CharString>
        <CharString name="hyphen">
          -293 59 242 rmoveto
          288 59 -288 hlineto
          endchar
        </CharString>
        <CharString name="i">
          169 callsubr
          -2 578 rmoveto
          112 92 -112 hlineto
          endchar
        </CharString>
        <CharString name="iacute">
          169 callsubr
          8 532 99 callsubr
          endchar
        </CharString>
        <CharString name="icircumflex">
          169 callsubr
          -172 532 rmoveto
          118 hlineto
          109 99 48 callsubr
          endchar
        </CharString>
        <CharString name="idieresis">
          169 callsubr
          122 623 315 callgsubr
        </CharString>
        <CharString name="igrave">
          169 callsubr
          -42 677 182 callgsubr
        </CharString>
        <CharString name="imacron">
          169 callsubr
          -128 533 293 callgsubr
          endchar
        </CharString>
        <CharString name="infinity">
          255 340 201 rmoveto
          76 22 11 63 42 hvcurveto
          8 11 23 -27 rlineto
          -50 39 18 -8 65 hhcurveto
          185 hlineto
          56 23 27 49 hvcurveto
          138 vlineto
          47 -23 29 -56 vhcurveto
          -196 hlineto
          -63 -14 -13 -53 -36 hvcurveto
          -21 -31 -31 40 rlineto
          43 -33 -17 14 -59 hhcurveto
          -213 hlineto
          -54 -23 -29 -47 hvcurveto
          -138 vlineto
          -49 23 -27 54 vhcurveto
          435 202 rmoveto
          18 13 10 12 20 hhcurveto
          163 hlineto
          30 3 -10 -25 hvcurveto
          -104 vlineto
          -26 -3 -8 -30 vhcurveto
          -153 hlineto
          -23 -11 8 15 -12 hvcurveto
          -50 59 rlineto
          -114 -50 rmoveto
          -18 -13 -20 -14 -24 hhcurveto
          -176 hlineto
          -31 -3 8 26 hvcurveto
          103 vlineto
          25 3 10 31 vhcurveto
          167 hlineto
          28 11 -12 -22 16 hvcurveto
          45 -58 rlineto
          endchar
        </CharString>
        <CharString name="integral">
          -307 251 626 282 callgsubr
          86 63 -148 86 callgsubr
          -669 vlineto
          -26 -2 -3 -5 -26 hhcurveto
          -86 -63 148 -36 callsubr
          endchar
        </CharString>
        <CharString name="iogonek">
          -405 204 670 rmoveto
          -112 -92 112 hlineto
          -149 -756 98 callsubr
          89 3 485 -107 -520 -77 hlineto
          80 callsubr
        </CharString>
        <CharString name="itfLogo">
          914 1299 220 rmoveto
          356 callsubr
          38 vmoveto
          356 callsubr
          -232 306 callgsubr
          -232 -182 rmoveto
          193 182 -193 hlineto
          -231 306 callgsubr
          -232 -182 rmoveto
          356 callsubr
          -231 306 callgsubr
          endchar
        </CharString>
        <CharString name="itfStar">
          -30 660 441 rmoveto
          -258 -8 -66 243 -69 -243 -257 8 218 -139 -94 -242 202 165 201 -165 -92 242 rlineto
          endchar
        </CharString>
        <CharString name="j">
          -413 94 -51 47 callsubr
          -101 -59 161 -36 callsubr
          547 -108 vlineto
          -2 93 rmoveto
          112 92 -112 hlineto
          endchar
        </CharString>
        <CharString name="k">
          -86 85 hmoveto
          107 669 -107 hlineto
          508 -184 264 callgsubr
        </CharString>
        <CharString name="l">
          -404 201 hmoveto
          669 -106 -669 vlineto
          endchar
        </CharString>
        <CharString name="lacute">
          -405 103 716 99 callsubr
          -43 -861 rmoveto
          669 -106 -669 vlineto
          endchar
        </CharString>
        <CharString name="lcaron">
          -396 94 669 rmoveto
          -669 107 669 vlineto
          90 -1 rmoveto
          -174 36 vlineto
          70 126 rlineto
          48 vlineto
          endchar
        </CharString>
        <CharString name="less">
          -28 616 403 rmoveto
          85 vlineto
          -577 -130 rlineto
          -92 vlineto
          577 -133 rlineto
          85 vlineto
          -485 93 rlineto
          endchar
        </CharString>
        <CharString name="lessequal">
          25 658 176 rmoveto
          -601 -70 601 hlineto
          310 vmoveto
          81 vlineto
          -601 -104 rlineto
          -93 vlineto
          601 -105 rlineto
          81 vlineto
          -512 70 rlineto
          endchar
        </CharString>
        <CharString name="logicalnot">
          52 689 397 rmoveto
          -628 -90 553 -148 75 hlineto
          endchar
        </CharString>
        <CharString name="lozenge">
          32 679 313 rmoveto
          -269 309 rlineto
          -99 hlineto
          -258 -309 258 -313 rlineto
          99 hlineto
          150 313 rmoveto
          -199 -238 -188 238 188 235 rlineto
          endchar
        </CharString>
        <CharString name="lslash">
          -403 324 431 rmoveto
          -123 -41 rlineto
          279 -106 -314 vlineto
          -117 -39 rlineto
          -62 vlineto
          117 39 rlineto
          -293 106 329 vlineto
          123 41 rlineto
          endchar
        </CharString>
        <CharString name="m">
          271 607 485 rmoveto
          -34 -21 -13 -28 -8 hvcurveto
          27 -10 -25 14 -38 hhcurveto
          -224 hlineto
          -29 -18 -10 -23 -8 hvcurveto
          33 -107 -485 107 392 350 callsubr
          25 vhcurveto
          185 193 callgsubr
          107 390 vlineto
          25 10 11 25 vhcurveto
          173 193 callgsubr
          106 406 88 callgsubr
        </CharString>
        <CharString name="macron">
          -86 120 550 293 callgsubr
          endchar
        </CharString>
        <CharString name="minus">
          -20 369 callsubr
          endchar
        </CharString>
        <CharString name="multiply">
          -40 583 439 rmoveto
          -54 65 -197 -137 -196 137 -53 -65 177 -123 -172 -120 52 -65 193 134 192 -134 53 64 -172 121 rlineto
          endchar
        </CharString>
        <CharString name="n">
          -66 248 485 23 callsubr
        </CharString>
        <CharString name="nacute">
          -66 576 677 52 callgsubr
          -164 -47 23 callsubr
        </CharString>
        <CharString name="ncaron">
          -66 389 532 rmoveto
          -3 callsubr
          169 -145 rlineto
          -25 -47 23 callsubr
        </CharString>
        <CharString name="nine">
          -36 222 318 283 callsubr
          183 -84 callsubr
          215 -72 callsubr
          -214 vlineto
          -309 304 rmoveto
          -21 callgsubr
          -205 -74 callgsubr
          309 -169 hlineto
          -46 callsubr
          -210 -88 callgsubr
          96 -110 -107 -74 callgsubr
          334 hlineto
          153 callgsubr
        </CharString>
        <CharString name="notequal">
          -11 613 361 rmoveto
          76 -129 vlineto
          59 72 rlineto
          -76 hlineto
          -59 -72 rlineto
          -333 -76 271 hlineto
          -78 -95 rlineto
          -193 -76 131 hlineto
          -64 -78 rlineto
          77 hlineto
          64 78 rlineto
          330 76 -268 hlineto
          77 95 rlineto
          endchar
        </CharString>
        <CharString name="ntilde">
          -66 197 587 rmoveto
          15 5 8 13 vhcurveto
          1 callsubr
          vlineto
          51 -46 23 callsubr
        </CharString>
        <CharString name="numbersign">
          249 581 228 rmoveto
          -253 hlineto
          55 165 rlineto
          253 hlineto
          255 hmoveto
          69 -138 vlineto
          53 160 rlineto
          -95 hlineto
          -53 -160 rlineto
          -253 hlineto
          53 160 rlineto
          -94 hlineto
          -53 -160 rlineto
          -207 -69 185 hlineto
          -55 -165 rlineto
          -177 -68 155 hlineto
          -53 -160 rlineto
          94 hlineto
          53 160 rlineto
          253 hlineto
          -53 -160 rlineto
          95 hlineto
          53 160 rlineto
          190 68 -168 hlineto
          55 165 rlineto
          endchar
        </CharString>
        <CharString name="o">
          -72 446 90 -35 callgsubr
        </CharString>
        <CharString name="oacute">
          -72 542 677 52 callgsubr
          68 -442 -35 callgsubr
        </CharString>
        <CharString name="ocircumflex">
          -72 315 631 rmoveto
          48 callsubr
          -169 -146 rlineto
          118 hlineto
          240 -442 -35 callgsubr
        </CharString>
        <CharString name="odieresis">
          -72 155 485 15 callgsubr
          318 -36 callsubr
          327 -41 callsubr
          -27 -90 rmoveto
          -305 vlineto
          44 callsubr
          -332 228 240 callgsubr
        </CharString>
        <CharString name="oe">
          265 541 278 rmoveto
          117 -84 callsubr
          191 -72 callsubr
          -117 vlineto
          -360 -189 rmoveto
          -23 -10 -7 -23 vhcurveto
          -186 hlineto
          14 callsubr
          186 hlineto
          23 10 -8 -22 hvcurveto
          119 89 rmoveto
          -44 -19 -18 -20 -5 hvcurveto
          20 -7 -20 18 -47 hhcurveto
          -256 107 callgsubr
          256 hlineto
          46 21 18 20 6 hvcurveto
          -20 6 19 -18 43 hhcurveto
          266 -36 callsubr
          62 -105 128 callgsubr
          -189 142 callsubr
          358 172 callgsubr
          endchar
        </CharString>
        <CharString name="ogonek">
          -86 283 303 callgsubr
          101 -104 -47 -77 hlineto
          80 callsubr
        </CharString>
        <CharString name="ograve">
          -72 371 532 157 callsubr
          177 -442 -35 callgsubr
        </CharString>
        <CharString name="ohungarumlaut">
          -72 155 485 15 callgsubr
          318 -36 callsubr
          327 -41 callsubr
          -27 -90 rmoveto
          -305 vlineto
          44 callsubr
          -128 299 rmoveto
          -148 310 callsubr
          172 162 rlineto
          104 hmoveto
          279 callsubr
          endchar
        </CharString>
        <CharString name="omacron">
          -72 498 591 269 callgsubr
          -52 -443 -35 callgsubr
        </CharString>
        <CharString name="one">
          -350 265 8 callsubr
          -238 -59 126 52 callsubr
          hlineto
          endchar
        </CharString>
        <CharString name="onesuperior">
          -450 183 8 callsubr
          -156 -42 81 -300 75 hlineto
          endchar
        </CharString>
        <CharString name="ordfeminine">
          -267 154 323 rmoveto
          -19 -4 4 18 hvcurveto
          213 vlineto
          19 4 3 19 vhcurveto
          113 hlineto
          18 8 -7 -17 hvcurveto
          -210 vlineto
          -17 -8 -6 -18 vhcurveto
          26 299 rmoveto
          -25 vlineto
          17 -6 -13 8 -21 hhcurveto
          -140 hlineto
          -38 -18 -18 -38 hvcurveto
          -230 vlineto
          -38 18 -18 38 vhcurveto
          140 hlineto
          21 13 8 17 6 hvcurveto
          -25 75 342 vlineto
          endchar
        </CharString>
        <CharString name="ordmasculine">
          -265 367 569 rmoveto
          36 -18 17 -35 vhcurveto
          -195 hlineto
          -36 -18 -17 -36 hvcurveto
          -236 vlineto
          -36 18 -17 36 vhcurveto
          195 hlineto
          35 18 17 36 hvcurveto
          -73 10 rmoveto
          -17 -4 -4 -17 vhcurveto
          -114 hlineto
          -18 -3 4 17 hvcurveto
          217 vlineto
          17 3 3 18 vhcurveto
          114 hlineto
          17 4 -3 -17 hvcurveto
          endchar
        </CharString>
        <CharString name="oslash">
          -55 459 87 rmoveto
          -27 -5 -5 -27 vhcurveto
          -208 hlineto
          -4 -4 0 -3 hhcurveto
          251 305 rlineto
          -272 39 rmoveto
          26 5 5 27 vhcurveto
          208 hlineto
          8 6 0 -2 5 hvcurveto
          -259 -314 rlineto
          395 395 rmoveto
          -70 hlineto
          -20 -24 rlineto
          -10 hlineto
          -319 86 callgsubr
          -327 vlineto
          -28 7 -21 16 -13 vhcurveto
          -34 -41 rlineto
          69 hlineto
          20 24 rlineto
          1 hlineto
          319 -36 callsubr
          327 vlineto
          25 -6 19 -11 13 vhcurveto
          endchar
        </CharString>
        <CharString name="otilde">
          -72 192 588 rmoveto
          15 5 8 13 vhcurveto
          1 callsubr
          vlineto
          254 -442 -35 callgsubr
        </CharString>
        <CharString name="p">
          -57 460 225 callsubr
          -202 hlineto
          -25 -10 9 25 hvcurveto
          299 350 callsubr
          25 318 callgsubr
          -213 90 rmoveto
          -30 -18 -11 -25 -8 hvcurveto
          36 -106 -626 107 174 vlineto
          -23 8 18 -10 29 hhcurveto
          241 314 callgsubr
        </CharString>
        <CharString name="paragraph">
          43 427 8 callsubr
          -274 86 callgsubr
          -240 -74 callgsubr
          175 -365 99 hlineto
          124 763 rmoveto
          -763 99 763 vlineto
          endchar
        </CharString>
        <CharString name="parenleft">
          -356 93 147 rmoveto
          -265 105 -101 162 vhcurveto
          35 59 -27 hlineto
          -110 6 -56 94 195 vvcurveto
          228 vlineto
          195 56 94 110 6 vhcurveto
          27 59 -35 hlineto
          -162 -105 -101 -265 hvcurveto
          endchar
        </CharString>
        <CharString name="parenright">
          -356 251 351 rmoveto
          265 -105 101 -162 vhcurveto
          -35 -59 27 hlineto
          109 -6 57 -94 -195 vvcurveto
          -228 vlineto
          -195 -57 -94 -109 -6 vhcurveto
          -27 -59 35 hlineto
          162 105 101 265 hvcurveto
          endchar
        </CharString>
        <CharString name="percent">
          401 1045 271 rmoveto
          44 -20 22 -43 vhcurveto
          -240 hlineto
          -43 306 callsubr
          43 vhcurveto
          240 hlineto
          43 20 21 45 hvcurveto
          -86 127 callgsubr
          -224 364 rmoveto
          -467 -622 rlineto
          94 hlineto
          468 622 rlineto
          -409 -67 rmoveto
          45 -19 21 -43 vhcurveto
          -240 hlineto
          -43 -20 -21 -45 hvcurveto
          -204 vlineto
          -45 20 -21 43 vhcurveto
          240 hlineto
          43 196 callgsubr
          endchar
        </CharString>
        <CharString name="period">
          -461 59 hmoveto
          323 callgsubr
          endchar
        </CharString>
        <CharString name="periodcentered">
          -427 78 254 rmoveto
          119 121 -119 hlineto
          endchar
        </CharString>
        <CharString name="perthousand">
          863 1045 271 rmoveto
          44 -19 22 -44 vhcurveto
          -240 hlineto
          -42 306 callsubr
          42 vhcurveto
          240 hlineto
          44 19 21 45 hvcurveto
          -85 127 callgsubr
          -225 364 rmoveto
          -466 -622 rlineto
          94 hlineto
          467 622 rlineto
          -408 -67 rmoveto
          45 -19 21 -44 vhcurveto
          -240 hlineto
          -42 -21 -21 -45 hvcurveto
          -204 vlineto
          -45 21 -21 42 vhcurveto
          240 hlineto
          44 196 callgsubr
          1168 -271 rmoveto
          44 -19 22 -43 vhcurveto
          -241 hlineto
          -42 306 callsubr
          42 vhcurveto
          241 hlineto
          43 19 21 45 hvcurveto
          -85 127 callgsubr
          endchar
        </CharString>
        <CharString name="pi">
          145 791 485 rmoveto
          -719 -59 109 -332 hlineto
          -46 callsubr
          -76 -63 135 -36 callsubr
          347 278 -426 106 426 119 vlineto
          endchar
        </CharString>
        <CharString name="plus">
          -44 598 350 rmoveto
          -217 156 -105 -156 -217 -78 217 -157 105 157 217 hlineto
          endchar
        </CharString>
        <CharString name="plusminus">
          -10 74 120 rmoveto
          539 69 -539 hlineto
          320 205 rmoveto
          112 -101 -112 -219 -73 219 -92 101 92 219 73 vlineto
          endchar
        </CharString>
        <CharString name="product">
          56 160 8 callsubr
          -528 -38 callsubr
          -94 -63 153 -36 callsubr
          484 288 -563 106 622 vlineto
          endchar
        </CharString>
        <CharString name="q">
          -63 244 59 rmoveto
          14 callsubr
          203 hlineto
          24 10 -9 -25 hvcurveto
          -299 149 callgsubr
          35 426 rmoveto
          -33 vlineto
          23 -8 -19 10 -29 hhcurveto
          -241 107 callgsubr
          241 hlineto
          28 18 9 22 9 hvcurveto
          -172 107 626 vlineto
          endchar
        </CharString>
        <CharString name="question">
          -116 212 hmoveto
          323 callgsubr
          -104 502 rmoveto
          -56 -23 -29 -48 hvcurveto
          -112 108 98 vlineto
          24 3 9 26 vhcurveto
          227 hlineto
          25 4 -9 -24 hvcurveto
          -170 vlineto
          -24 -4 -8 -25 vhcurveto
          -173 hlineto
          8 -129 rlineto
          90 hlineto
          5 68 rlineto
          128 hlineto
          55 24 30 48 hvcurveto
          199 vlineto
          48 -24 29 -55 vhcurveto
          endchar
        </CharString>
        <CharString name="questiondown">
          -79 401 484 rmoveto
          -120 -120 120 hlineto
          76 -313 rmoveto
          -98 vlineto
          -24 -3 -9 -26 vhcurveto
          -228 hlineto
          -25 -3 9 24 hvcurveto
          170 vlineto
          24 3 8 25 vhcurveto
          174 hlineto
          -9 129 rlineto
          -89 hlineto
          -5 -68 rlineto
          -128 hlineto
          -55 -24 -30 -48 hvcurveto
          -199 vlineto
          -48 24 -29 55 vhcurveto
          343 hlineto
          56 23 29 48 hvcurveto
          112 vlineto
          endchar
        </CharString>
        <CharString name="quotedbl">
          -328 59 8 callsubr
          -225 97 225 vlineto
          60 hmoveto
          -225 97 225 vlineto
          endchar
        </CharString>
        <CharString name="quotedblbase">
          -302 230 -133 170 callgsubr
          -171 -258 170 callgsubr
          endchar
        </CharString>
        <CharString name="quotedblleft">
          -302 317 callsubr
          170 258 rmoveto
          -39 hlineto
          -81 -196 rlineto
          -62 120 vlineto
          endchar
        </CharString>
        <CharString name="quotedblright">
          -302 230 364 170 callgsubr
          -171 -258 170 callgsubr
          endchar
        </CharString>
        <CharString name="quoteleft">
          -471 317 callsubr
          endchar
        </CharString>
        <CharString name="quoteright">
          -471 59 364 170 callgsubr
          endchar
        </CharString>
        <CharString name="quotesinglbase">
          -471 59 -133 170 callgsubr
          endchar
        </CharString>
        <CharString name="quotesingle">
          -481 59 8 callsubr
          -225 101 225 vlineto
          endchar
        </CharString>
        <CharString name="r">
          -318 277 485 rmoveto
          -48 -27 -26 -36 -10 hvcurveto
          62 -107 -485 107 348 vlineto
          49 21 26 46 vhcurveto
          113 62 hlineto
          endchar
        </CharString>
        <CharString name="racute">
          -318 471 678 52 callgsubr
          -115 246 callsubr
        </CharString>
        <CharString name="rcaron">
          -318 294 533 rmoveto
          -3 callsubr
          169 -145 rlineto
          14 246 callsubr
        </CharString>
        <CharString name="registered">
          -80 562 529 rmoveto
          102 -37 55 -100 vhcurveto
          -230 hlineto
          -100 -37 -55 -102 hvcurveto
          -37 vlineto
          -102 37 -52 100 vhcurveto
          230 hlineto
          100 37 52 102 hvcurveto
          -360 -112 rmoveto
          -62 -20 44 65 hvcurveto
          43 vlineto
          66 20 49 62 vhcurveto
          217 hlineto
          62 19 -49 -66 hvcurveto
          -43 vlineto
          -65 -19 -44 -62 vhcurveto
          -204 231 rmoveto
          -194 53 70 36 vlineto
          46 -70 rlineto
          57 hlineto
          -48 72 rlineto
          9 hlineto
          22 8 14 18 hvcurveto
          58 vlineto
          21 -12 11 -22 vhcurveto
          -19 -77 rmoveto
          -7 -3 -3 -8 vhcurveto
          -66 53 66 hlineto
          8 3 -3 -8 hvcurveto
          endchar
        </CharString>
        <CharString name="ring">
          -86 468 610 125 callgsubr
          endchar
        </CharString>
        <CharString name="s">
          -116 412 89 71 callsubr
        </CharString>
        <CharString name="sacute">
          -117 264 532 99 callsubr
          8 70 callgsubr
        </CharString>
        <CharString name="scaron">
          -117 244 532 rmoveto
          116 hlineto
          -3 callsubr
          337 70 callgsubr
        </CharString>
        <CharString name="section">
          -35 520 200 rmoveto
          33 7 19 29 47 vvcurveto
          89 -41 callsubr
          -216 269 callsubr
          -84 callsubr
          157 -72 callsubr
          -43 108 54 -41 callsubr
          -278 86 callgsubr
          -114 vlineto
          -25 11 -14 9 -9 vhcurveto
          -33 -8 -18 -31 -46 vvcurveto
          -87 -74 callgsubr
          216 hlineto
          25 -26 callsubr
          -91 vlineto
          -26 -5 -5 -25 vhcurveto
          -157 -88 callgsubr
          43 -109 -54 -74 callgsubr
          277 -36 callsubr
          111 vlineto
          24 -10 16 -9 10 vhcurveto
          -88 192 rmoveto
          -59 callsubr
          -99 -38 callsubr
          -187 -88 callgsubr
          99 315 callsubr
        </CharString>
        <CharString name="semicolon">
          -471 59 365 rmoveto
          323 callgsubr
          -623 vmoveto
          40 hlineto
          80 196 rlineto
          67 -120 vlineto
          endchar
        </CharString>
        <CharString name="seven">
          -175 507 8 callsubr
          -470 -59 353 hlineto
          -271 -563 rlineto
          116 hlineto
          272 565 rlineto
          endchar
        </CharString>
        <CharString name="six">
          -41 474 225 callsubr
          -216 -88 callgsubr
          206 247 vlineto
          -59 callsubr
          -278 90 rmoveto
          177 -84 callsubr
          212 -72 callsubr
          -104 109 115 -41 callsubr
          -336 4 callgsubr
          340 -36 callsubr
          197 88 callgsubr
        </CharString>
        <CharString name="slash">
          -293 291 callgsubr
        </CharString>
        <CharString name="space">
          -426 endchar
        </CharString>
        <CharString name="sterling">
          -4 230 73 rmoveto
          27 15 4 34 59 vvcurveto
          91 282 59 -282 201 -84 callsubr
          196 -72 callsubr
          -98 109 109 -41 callsubr
          -319 86 callgsubr
          -212 -87 -59 87 -98 vlineto
          -67 -23 -39 -55 -2 vhcurveto
          -66 568 73 vlineto
          endchar
        </CharString>
        <CharString name="t">
          -325 337 426 208 callgsubr
        </CharString>
        <CharString name="tcaron">
          -326 220 575 rmoveto
          -106 -90 -78 -59 78 -347 261 callsubr
          144 63 -86 -88 callgsubr
          332 118 59 -118 vlineto
          59 240 rmoveto
          -172 35 vlineto
          70 124 rlineto
          48 vlineto
          endchar
        </CharString>
        <CharString name="thorn">
          -66 451 100 47 callsubr
          -193 hlineto
          -25 -10 9 25 hvcurveto
          298 350 callsubr
          25 vhcurveto
          193 -72 callsubr
          -204 90 rmoveto
          -30 -18 -11 -25 -8 hvcurveto
          211 -106 -810 107 184 vlineto
          -23 8 18 -10 29 hhcurveto
          232 -36 callsubr
          326 88 callgsubr
        </CharString>
        <CharString name="three">
          -37 184 532 282 callgsubr
          231 -72 callsubr
          -156 -38 callsubr
          -173 -60 173 -72 callsubr
          -164 -38 callsubr
          -231 -88 callgsubr
          103 -109 -114 -74 callgsubr
          354 -36 callsubr
          183 333 callsubr
          172 -41 callsubr
          -354 86 callgsubr
          -115 109 vlineto
          endchar
        </CharString>
        <CharString name="threesuperior">
          -292 135 563 rmoveto
          14 3 3 14 vhcurveto
          105 hlineto
          15 2 -3 -14 hvcurveto
          -71 vlineto
          -14 -2 -3 -15 vhcurveto
          -97 -43 97 hlineto
          15 2 -3 -14 hvcurveto
          -75 vlineto
          -15 -2 -3 -15 vhcurveto
          -105 hlineto
          -14 -3 3 15 hvcurveto
          47 -70 -64 vlineto
          -29 14 -14 29 vhcurveto
          194 hlineto
          29 15 14 29 hvcurveto
          101 vlineto
          19 -10 9 -15 2 vhcurveto
          15 1 10 11 18 vvcurveto
          95 vlineto
          29 -15 14 -29 vhcurveto
          -194 hlineto
          -29 -14 -14 -29 hvcurveto
          -64 70 vlineto
          endchar
        </CharString>
        <CharString name="tilde">
          -86 199 598 rmoveto
          1 callsubr
          56 vlineto
          15 5 8 13 vhcurveto
          endchar
        </CharString>
        <CharString name="trademark">
          259 21 561 rmoveto
          134 -268 90 268 134 61 -358 hlineto
          775 hmoveto
          -124 -207 -121 207 rlineto
          -105 -329 83 235 hlineto
          107 -184 rlineto
          73 hlineto
          110 183 rlineto
          -234 83 329 vlineto
          endchar
        </CharString>
        <CharString name="two">
          -73 168 532 282 callgsubr
          227 -72 callsubr
          -40 vlineto
          -57 -20 -30 -41 -39 vhcurveto
          -338 -308 rlineto
          -58 513 59 -365 vlineto
          300 274 rlineto
          52 48 9 33 75 vvcurveto
          54 -41 callsubr
          -351 86 callgsubr
          -133 110 vlineto
          endchar
        </CharString>
        <CharString name="twosuperior">
          -318 132 563 rmoveto
          14 3 3 14 vhcurveto
          99 hlineto
          15 2 -3 -14 hvcurveto
          -22 vlineto
          -34 -11 -22 -21 -18 vhcurveto
          -168 -143 rlineto
          -44 268 45 -180 vlineto
          141 114 rlineto
          28 23 14 30 47 vvcurveto
          40 vlineto
          29 -14 14 -29 vhcurveto
          -187 hlineto
          -29 -14 -14 -29 hvcurveto
          -69 69 vlineto
          endchar
        </CharString>
        <CharString name="u">
          -66 442 485 -29 callsubr
        </CharString>
        <CharString name="uacute">
          -66 531 677 52 callgsubr
          75 -47 -29 callsubr
        </CharString>
        <CharString name="ucircumflex">
          -66 311 631 rmoveto
          48 callsubr
          -169 -146 rlineto
          118 hlineto
          240 -47 -29 callsubr
        </CharString>
        <CharString name="udieresis">
          -62 516 623 321 callgsubr
          -268 91 321 callgsubr
          194 -47 -29 callsubr
        </CharString>
        <CharString name="ugrave">
          -66 383 532 157 callsubr
          161 -47 -29 callsubr
        </CharString>
        <CharString name="uhungarumlaut">
          -66 467 533 rmoveto
          174 162 rlineto
          -114 hlineto
          -150 -162 rlineto
          46 162 rmoveto
          -114 hlineto
          -148 310 callsubr
          191 -48 -29 callsubr
        </CharString>
        <CharString name="umacron">
          -66 498 592 269 callgsubr
          -56 -49 -29 callsubr
        </CharString>
        <CharString name="underscore">
          -111 1 -59 rmoveto
          586 59 -586 hlineto
          endchar
        </CharString>
        <CharString name="uni00AD">
          -362 55 258 rmoveto
          228 59 -228 hlineto
          endchar
        </CharString>
        <CharString name="uni00B5">
          -56 452 485 rmoveto
          -392 vlineto
          -25 -10 -9 -25 120 callsubr
          395 -107 -626 107 141 204 vlineto
          30 18 10 23 8 hvcurveto
          -33 107 485 vlineto
          endchar
        </CharString>
        <CharString name="uni0122">
          -29 277 -229 29 callsubr
          318 480 33 callgsubr
        </CharString>
        <CharString name="uni0123">
          -75 400 710 rmoveto
          -37 hlineto
          -78 -129 rlineto
          -50 115 vlineto
          -186 -472 11 callsubr
        </CharString>
        <CharString name="uni0136">
          -22 94 8 callsubr
          -622 107 622 vlineto
          315 hmoveto
          276 callgsubr
          -349 -851 151 callsubr
        </CharString>
        <CharString name="uni0137">
          -88 85 hmoveto
          107 669 -107 hlineto
          165 -898 29 callsubr
          343 534 264 callgsubr
        </CharString>
        <CharString name="uni013B">
          -155 247 -229 29 callsubr
          -44 108 223 callsubr
        </CharString>
        <CharString name="uni013C">
          -405 200 hmoveto
          669 -106 -669 vlineto
          -5 -229 151 callsubr
        </CharString>
        <CharString name="uni0145">
          23 528 141 callsubr
          -323 -851 151 callsubr
        </CharString>
        <CharString name="uni0146">
          -66 265 -229 29 callsubr
          -17 534 23 callsubr
        </CharString>
        <CharString name="uni0156">
          -8 287 -229 29 callsubr
          -84 612 rmoveto
          274 -72 callsubr
          -219 -38 callsubr
          -274 hlineto
          278 -59 rmoveto
          57 215 callgsubr
          -41 callsubr
          -444 -622 109 223 168 hlineto
          137 -223 rlineto
          114 hlineto
          endchar
        </CharString>
        <CharString name="uni0157">
          -318 80 -229 29 callsubr
          197 534 rmoveto
          -48 -27 -26 -36 -10 hvcurveto
          62 -107 -485 107 348 vlineto
          49 21 26 46 vhcurveto
          113 62 hlineto
          endchar
        </CharString>
        <CharString name="uni015E">
          -46 470 90 -51 callsubr
          -204 -482 151 callsubr
        </CharString>
        <CharString name="uni015F">
          -117 412 89 -47 callsubr
          -179 -410 151 callsubr
        </CharString>
        <CharString name="uni0162">
          -129 226 -229 29 callsubr
          335 671 305 callgsubr
        </CharString>
        <CharString name="uni0163">
          -129 227 -229 29 callsubr
          -218 671 rmoveto
          203 callsubr
          59 vlineto
          endchar
        </CharString>
        <CharString name="uni0218">
          -46 470 90 -51 callsubr
          -203 -482 151 callsubr
        </CharString>
        <CharString name="uni0219">
          -117 412 89 -47 callsubr
          -178 -410 151 callsubr
        </CharString>
        <CharString name="uni021A">
          -129 230 -229 29 callsubr
          -221 671 rmoveto
          203 callsubr
          59 vlineto
          endchar
        </CharString>
        <CharString name="uni021B">
          -326 122 -229 29 callsubr
          215 475 208 callgsubr
        </CharString>
        <CharString name="uni02C9">
          -232 81 550 rmoveto
          305 58 -305 hlineto
          endchar
        </CharString>
        <CharString name="uni0901">
          -700 -285 685 rmoveto
          344 hlineto
          54 23 26 52 hvcurveto
          89 -100 -77 -41 callgsubr
          -236 -43 callgsubr
          77 -100 355 callsubr
          124 119 rmoveto
          94 94 -94 hlineto
          endchar
        </CharString>
        <CharString name="uni0902">
          -700 -242 687 rmoveto
          113 101 -113 hlineto
          endchar
        </CharString>
        <CharString name="uni0902.aMatraI">
          -700 84 685 rmoveto
          114 101 -114 hlineto
          endchar
        </CharString>
        <CharString name="uni0903">
          -299 163 434 rmoveto
          112 106 -112 hlineto
          -433 vmoveto
          112 106 -112 hlineto
          endchar
        </CharString>
        <CharString name="uni0905">
          367 1087 8 callsubr
          -261 -75 callgsubr
          148 vlineto
          endchar
        </CharString>
        <CharString name="uni0906">
          720 1440 8 callsubr
          -614 -75 callgsubr
          240 113 callgsubr
        </CharString>
        <CharString name="uni0907">
          52 649 104 callgsubr
          123 59 -792 96 callsubr
        </CharString>
        <CharString name="uni0908">
          53 651 104 callgsubr
          123 59 -171 110 16 callsubr
          111 59 -177 hlineto
          -95 callgsubr
          -122 -509 96 callsubr
        </CharString>
        <CharString name="uni09080902">
          53 650 104 callgsubr
          123 59 -200 138 216 callgsubr
          157 59 -229 347 callsubr
          -155 -478 -59 556 -78 -358 vlineto
          -95 callgsubr
          -64 -92 callsubr
          334 -72 callsubr
          -66 -38 callsubr
          -293 53 -115 -190 115 78 358 -43 callsubr
          90 11 callgsubr
          -333 -2 callgsubr
          40 20 callgsubr
          496 234 rmoveto
          93 -92 -93 vlineto
          endchar
        </CharString>
        <CharString name="uni0909">
          22 742 8 callsubr
          -762 -59 469 56 callgsubr
          210 vlineto
          34 -16 16 -29 2 vhcurveto
          3 vlineto
          29 1 16 17 35 vvcurveto
          138 vlineto
          15 -3 9 -7 5 vhcurveto
          159 hlineto
          endchar
        </CharString>
        <CharString name="uni090A">
          357 1077 8 callsubr
          -1096 -59 470 56 callgsubr
          202 251 vlineto
          -17 callsubr
          -159 -62 callgsubr
          -205 -59 271 -102 callsubr
          183 -47 callgsubr
          -350 hlineto
          1 -3 -5 1 -4 hhcurveto
          2 vlineto
          29 2 16 17 34 vvcurveto
          138 vlineto
          15 -3 9 -7 5 vhcurveto
          492 hlineto
          endchar
        </CharString>
        <CharString name="uni090B">
          70 callsubr
          469 hlineto
          23 6 -4 -25 hvcurveto
          -81 vlineto
          -24 -3 -8 -25 vhcurveto
          -193 hlineto
          -25 -5 6 24 hvcurveto
          48 -110 -59 vlineto
          -46 22 -32 48 vhcurveto
          321 hlineto
          56 23 28 50 hvcurveto
          100 vlineto
          39 -13 13 -23 7 vhcurveto
          5 vlineto
          25 6 12 18 53 vvcurveto
          88 246 callgsubr
        </CharString>
        <CharString name="uni090C">
          436 1008 34 rmoveto
          529 148 59 -1176 -59 915 -78 -284 vlineto
          -32 -13 -14 -25 -5 hvcurveto
          -4 hlineto
          14 callgsubr
          -310 hlineto
          -95 callgsubr
          -105 callsubr
          249 -333 -210 347 callsubr
          -121 262 callgsubr
          352 59 -283 hlineto
          186 callsubr
          endchar
        </CharString>
        <CharString name="uni090D">
          89 578 685 rmoveto
          -91 callgsubr
          89 -106 84 callgsubr
          576 -63 rmoveto
          -829 48 callgsubr
        </CharString>
        <CharString name="uni090E">
          89 809 8 callsubr
          -126 116 callsubr
          -590 -59 149 -485 -92 callsubr
          391 102 callsubr
          -260 -43 callgsubr
          473 329 -189 -62 callgsubr
          -137 -59 202 -43 callsubr
          201 127 vlineto
          endchar
        </CharString>
        <CharString name="uni090F">
          89 809 8 callsubr
          -829 48 callgsubr
        </CharString>
        <CharString name="uni0910">
          89 809 8 callsubr
          -129 208 callsubr
          -589 48 callgsubr
        </CharString>
        <CharString name="uni0911">
          711 1228 685 rmoveto
          -91 callgsubr
          89 -106 84 callgsubr
          548 -63 rmoveto
          -605 -75 callgsubr
          231 113 callgsubr
        </CharString>
        <CharString name="uni0912">
          711 1431 8 callsubr
          -149 116 callsubr
          -343 -269 -251 4 vlineto
          -71 callsubr
          231 113 callgsubr
        </CharString>
        <CharString name="uni0913">
          712 1432 8 callsubr
          -148 208 callsubr
          -347 -75 callgsubr
          232 113 callgsubr
        </CharString>
        <CharString name="uni0914">
          763 1483 8 callsubr
          -150 hlineto
          -43 200 rlineto
          -95 111 callsubr
          -336 -75 callgsubr
          231 113 callgsubr
        </CharString>
        <CharString name="uni0915">
          383 1103 362 callsubr
          -1123 -59 506 -392 vlineto
          -26 -8 -8 -26 vhcurveto
          -215 hlineto
          -26 -6 6 25 hvcurveto
          227 vlineto
          25 6 6 26 vhcurveto
          199 59 -265 hlineto
          -53 -25 -25 -53 hvcurveto
          -45 callgsubr
        </CharString>
        <CharString name="uni0915093C">
          383 164 -87 -13 callsubr
          939 550 rmoveto
          59 -1123 -59 506 -392 vlineto
          -26 -8 -8 -26 vhcurveto
          -215 hlineto
          -26 -6 6 25 hvcurveto
          227 vlineto
          25 6 6 26 vhcurveto
          199 59 -265 hlineto
          -53 -25 -25 -53 hvcurveto
          -45 callgsubr
        </CharString>
        <CharString name="uni0915093C094D">
          44 119 -87 -13 callsubr
          511 472 191 callgsubr
          253 59 -871 -93 callsubr
          274 59 hlineto
          endchar
        </CharString>
        <CharString name="uni0915093C094D0915093C">
          1131 119 -87 -13 callsubr
          792 -100 -13 callsubr
          322 158 rmoveto
          -98 callgsubr
          -4 -4 0 -4 hhcurveto
          0 -276 vlineto
          -61 callgsubr
          635 vlineto
          617 hmoveto
          59 -1870 -93 callsubr
          209 hlineto
          -53 callsubr
        </CharString>
        <CharString name="uni0915093C094D0924">
          814 119 -87 -13 callsubr
          1155 472 rmoveto
          -644 -45 callsubr
          676 361 callsubr
          -1555 -104 callsubr
          192 hlineto
          -39 callsubr
          -329 -37 callsubr
        </CharString>
        <CharString name="uni0915093C094D092B">
          1175 119 -87 -13 callsubr
          1153 262 callsubr
          -78 191 callgsubr
          256 -78 vlineto
          1042 78 rmoveto
          59 -1916 -93 callsubr
          222 -270 hlineto
          -86 callsubr
          307 hlineto
          14 11 3 6 7 hvcurveto
          -87 -93 callgsubr
        </CharString>
        <CharString name="uni0915093C094D092B093C">
          1175 119 -90 rmoveto
          113 99 -113 hlineto
          766 -96 -13 callsubr
          387 262 callsubr
          -78 191 callgsubr
          256 -78 vlineto
          1042 78 rmoveto
          59 -1916 -93 callsubr
          222 -270 hlineto
          -86 callsubr
          307 hlineto
          14 11 3 6 7 hvcurveto
          -87 -93 callgsubr
        </CharString>
        <CharString name="uni0915093C094D092C">
          861 119 -87 -13 callsubr
          843 413 rmoveto
          316 59 -648 -45 callsubr
          722 -250 vlineto
          310 callgsubr
          -362 -40 24 callgsubr
          295 485 rmoveto
          -1601 -104 callsubr
          194 hlineto
          76 callsubr
        </CharString>
        <CharString name="uni0915093C094D092E">
          1088 119 -87 -13 callsubr
          1429 472 rmoveto
          -214 78 214 hlineto
          -327 -395 -107 callgsubr
          59 vmoveto
          -591 -45 callsubr
          623 vlineto
          587 59 rmoveto
          -1828 -104 callsubr
          183 hlineto
          -39 callsubr
          -251 12 callsubr
        </CharString>
        <CharString name="uni0915093C094D0930">
          384 337 -235 -13 callsubr
          767 698 rmoveto
          59 -1124 -59 506 -389 vlineto
          -26 -8 -8 -26 vhcurveto
          -215 hlineto
          -26 -5 5 26 hvcurveto
          224 vlineto
          25 5 6 26 vhcurveto
          199 59 -265 hlineto
          -53 -25 -25 -53 hvcurveto
          -248 -6 callsubr
        </CharString>
        <CharString name="uni0915093C094D0930094D">
          41 337 -235 -13 callsubr
          293 620 76 callgsubr
        </CharString>
        <CharString name="uni0915094D">
          42 630 485 191 callgsubr
          251 59 -869 -93 callsubr
          271 59 hlineto
          endchar
        </CharString>
        <CharString name="uni0915094D0915">
          1115 1218 171 rmoveto
          -95 callsubr
          -538 -45 callsubr
          620 vlineto
          617 hmoveto
          59 -1855 -93 callsubr
          194 hlineto
          -53 callsubr
        </CharString>
        <CharString name="uni0915094D0916">
          1419 1200 329 rmoveto
          100 callsubr
          -201 187 -337 -45 callsubr
          602 vlineto
          939 59 rmoveto
          -2159 -104 callsubr
          223 -348 hlineto
          19 callsubr
          -7 -88 callsubr
          149 300 callgsubr
          26 24 53 hvcurveto
          247 568 -347 vlineto
          -28 -10 -10 -29 vhcurveto
          -253 hlineto
          -26 -5 7 24 hvcurveto
          156 -105 callgsubr
          247 59 -304 103 callgsubr
          17 11 3 10 7 hvcurveto
          -133 187 callsubr
        </CharString>
        <CharString name="uni0915094D091A">
          878 1338 171 177 callsubr
          -310 -101 callgsubr
          227 vlineto
          362 callgsubr
          157 59 -520 -45 callsubr
          740 vlineto
          217 callsubr
          -1618 -104 callsubr
          228 hlineto
          91 callsubr
          -241 -68 callgsubr
          377 -34 callgsubr
        </CharString>
        <CharString name="uni0915094D091C">
          1115 1574 485 rmoveto
          51 callgsubr
          -330 vlineto
          -61 callgsubr
          976 361 callsubr
          -1855 -104 callsubr
          218 60 callgsubr
        </CharString>
        <CharString name="uni0915094D091F">
          772 1223 485 rmoveto
          -593 -45 callsubr
          625 vlineto
          112 -137 190 callgsubr
          -1512 -93 callsubr
          194 hlineto
          -39 callsubr
          -329 -65 callgsubr
        </CharString>
        <CharString name="uni0915094D0923">
          1111 1233 168 -6 callgsubr
          -603 -78 191 callgsubr
          230 -78 vlineto
          1003 137 rmoveto
          -1851 -104 callsubr
          196 -270 hlineto
          -86 callsubr
          263 callgsubr
        </CharString>
        <CharString name="uni0915094D0924">
          398 1118 362 callsubr
          -1138 -59 516 -78 -464 -59 75 vlineto
          91 callsubr
          -319 -68 callgsubr
          259 59 -194 -101 callgsubr
          305 vlineto
          362 callgsubr
          256 -426 111 392 hlineto
          -22 callgsubr
          220 22 callsubr
          -305 -41 callgsubr
          -194 -59 259 -43 callsubr
          329 11 callgsubr
          -287 -45 callsubr
          vlineto
          endchar
        </CharString>
        <CharString name="uni0915094D0924094D092F">
          1499 1958 55 callgsubr
          -2239 -104 callsubr
          196 hlineto
          -39 callsubr
          -76 callgsubr
          338 59 -404 hlineto
          -2 0 -273 -45 callsubr
          1011 vlineto
          -80 callsubr
          0 callgsubr
          535 hlineto
          17 12 4 9 7 hvcurveto
          -91 -69 callsubr
        </CharString>
        <CharString name="uni0915094D0924094D0930">
          835 1296 276 rmoveto
          -72 hlineto
          -150 144 rlineto
          58 -63 -49 7 -76 hhcurveto
          -256 -45 callsubr
          698 vlineto
          259 59 rmoveto
          -1575 -104 callsubr
          210 hlineto
          45 46 -7 -48 50 hvcurveto
          137 -128 -280 -243 rlineto
          144 hlineto
          242 212 rlineto
          70 -212 110 81 callsubr
        </CharString>
        <CharString name="uni0915094D0924094D0935">
          1198 1658 171 rmoveto
          -59 callgsubr
          -978 -45 callsubr
          1060 vlineto
          217 callsubr
          -1938 -104 callsubr
          190 hlineto
          207 callgsubr
          266 hlineto
          -39 callsubr
          -251 -35 callsubr
        </CharString>
        <CharString name="uni0915094D0925">
          1072 1792 8 callsubr
          -260 240 callsubr
          -523 236 callsubr
          -25 -25 -53 hvcurveto
          -59 -203 vlineto
          -61 callgsubr
          69 59 -687 -93 callsubr
          312 106 hlineto
          -100 callgsubr
          212 251 callsubr
          -136 vlineto
          -25 -7 212 callsubr
          26 -25 53 vhcurveto
          590 -34 callgsubr
        </CharString>
        <CharString name="uni0915094D0926">
          785 1236 485 rmoveto
          -606 -45 callsubr
          638 vlineto
          112 -137 190 callgsubr
          -1525 -93 callsubr
          191 hlineto
          -39 callsubr
          -251 -20 callgsubr
        </CharString>
        <CharString name="uni0915094D0928">
          1086 1545 485 rmoveto
          -915 -45 callsubr
          947 vlineto
          -321 -395 -107 callgsubr
          582 196 rmoveto
          -1826 -104 callsubr
          184 hlineto
          -39 callsubr
          -251 -19 callsubr
        </CharString>
        <CharString name="uni0915094D092A">
          796 1256 -32 callsubr
          -626 -78 191 callgsubr
          240 -78 vlineto
          679 137 rmoveto
          -1537 -104 callsubr
          206 -270 112 callgsubr
        </CharString>
        <CharString name="uni0915094D092A094D0930">
          802 1262 45 callgsubr
          -632 -78 191 callgsubr
          246 -78 vlineto
          679 137 rmoveto
          -1543 -104 callsubr
          212 -235 hlineto
          35 callgsubr
        </CharString>
        <CharString name="uni0915094D092B">
          1160 1256 -32 callsubr
          -626 -78 191 callgsubr
          240 -78 vlineto
          1042 78 rmoveto
          59 -1900 -93 callsubr
          206 -270 hlineto
          -86 callsubr
          307 hlineto
          14 11 3 6 7 hvcurveto
          -87 -93 callgsubr
        </CharString>
        <CharString name="uni0915094D092E">
          1098 1558 485 rmoveto
          -214 78 214 hlineto
          -327 -395 -107 callgsubr
          59 vmoveto
          -601 -45 callsubr
          633 vlineto
          587 59 rmoveto
          -1838 -104 callsubr
          193 hlineto
          -39 callsubr
          -251 12 callsubr
        </CharString>
        <CharString name="uni0915094D092F">
          1015 1476 175 -49 callsubr
          -1756 -104 callsubr
          194 59 -196 -45 callsubr
          528 vlineto
          -97 callsubr
        </CharString>
        <CharString name="uni0915094D0930">
          384 1104 362 callsubr
          -1124 -59 506 -389 vlineto
          -26 -8 -8 -26 vhcurveto
          -215 hlineto
          -26 -5 5 26 hvcurveto
          224 vlineto
          25 5 6 26 vhcurveto
          199 59 -265 hlineto
          -53 -25 -25 -53 hvcurveto
          -248 -6 callsubr
        </CharString>
        <CharString name="uni0915094D0930.aTrad">
          418 1139 362 callsubr
          -1159 -59 542 -287 -71 vlineto
          36 callgsubr
          69 -212 111 392 hlineto
          -22 callgsubr
          215 22 callsubr
          -227 -41 callgsubr
          -200 -59 265 -46 callgsubr
          -282 -45 callsubr
          vlineto
          endchar
        </CharString>
        <CharString name="uni0915094D0930094D">
          41 630 485 76 callgsubr
        </CharString>
        <CharString name="uni0915094D0932">
          1148 1607 194 callgsubr
          -580 -45 callsubr
          1009 vlineto
          262 59 rmoveto
          -1889 -104 callsubr
          191 hlineto
          -39 callsubr
          -329 -51 callgsubr
        </CharString>
        <CharString name="uni0915094D0935">
          786 1246 171 rmoveto
          -59 callgsubr
          -566 -45 callsubr
          648 vlineto
          217 callsubr
          -1526 -104 callsubr
          187 hlineto
          -39 callsubr
          -251 -35 callsubr
        </CharString>
        <CharString name="uni0915094D0935094D092F">
          1484 1944 175 -103 callsubr
          -986 -426 rmoveto
          253 callgsubr
          996 232 callgsubr
          -2224 -104 callsubr
          183 hlineto
          -39 callsubr
          143 callgsubr
          371 27 callsubr
          -23 callgsubr
        </CharString>
        <CharString name="uni0915094D0936">
          1132 899 622 348 callsubr
          -59 -191 vlineto
          -61 callgsubr
          61 59 -679 -93 callsubr
          300 106 hlineto
          25 7 352 callsubr
          -177 43 callsubr
          -263 47 -113 -293 hlineto
          -53 25 -25 53 vhcurveto
          363 159 callsubr
          -262 -622 101 callgsubr
        </CharString>
        <CharString name="uni0915094D0937">
          381 517 394 40 callgsubr
          584 91 rmoveto
          -261 -260 -226 hlineto
          -57 callsubr
          607 -304 137 callsubr
        </CharString>
        <CharString name="uni0915094D0937094D">
          27 253 531 rmoveto
          49 callgsubr
          200 hlineto
          -48 callsubr
          -137 vlineto
          120 callgsubr
          637 -90 rmoveto
          58 -276 vlineto
          -57 callsubr
          endchar
        </CharString>
        <CharString name="uni0915094D0937094D092E">
          1107 1566 485 rmoveto
          -214 78 214 hlineto
          -326 147 callgsubr
          -723 -32 40 callgsubr
          1310 91 rmoveto
          -1067 -59 480 -78 -330 hlineto
          -95 callgsubr
          -45 -218 vlineto
          -57 callsubr
          599 -148 hlineto
          -53 25 -25 53 vhcurveto
          37 callgsubr
          149 vlineto
          endchar
        </CharString>
        <CharString name="uni0915094D0937094D092E094D">
          739 1241 168 -107 callgsubr
          -724 -32 40 callgsubr
          1088 -46 rmoveto
          -251 78 238 59 -839 -59 488 319 callgsubr
          -45 -219 vlineto
          -57 callsubr
          600 -148 hlineto
          -53 26 291 callsubr
          270 251 vlineto
          endchar
        </CharString>
        <CharString name="uni0915094D0937094D092E094D092F">
          1754 2214 175 -103 callsubr
          -974 147 callgsubr
          -723 -32 40 callgsubr
          1957 91 rmoveto
          -1710 -59 476 -78 -330 hlineto
          -95 callgsubr
          -45 -218 vlineto
          -57 callsubr
          599 -148 hlineto
          -16 callsubr
          270 213 59 -213 78 512 vlineto
          -97 callsubr
        </CharString>
        <CharString name="uni0915094D0937094D092F">
          1012 1472 175 69 callgsubr
          136 253 vlineto
          159 callgsubr
          151 -44 callgsubr
          216 hlineto
          -955 -168 rmoveto
          120 callgsubr
          136 20 callgsubr
          200 hlineto
          -48 callsubr
          1215 91 rmoveto
          -983 -59 373 hlineto
          -48 callsubr
          -137 vlineto
          -25 -6 -7 -26 vhcurveto
          -508 hlineto
          8 5 4 10 17 vvcurveto
          149 vlineto
          53 -25 24 -53 vhcurveto
          -326 hlineto
          -53 -25 -24 -53 hvcurveto
          -149 vlineto
          -17 4 -10 8 -5 vhcurveto
          -49 -3 -18 -31 -46 vvcurveto
          -127 -68 callgsubr
          309 128 callsubr
          -92 112 223 -112 -48 vlineto
          158 callsubr
          -240 -88 callgsubr
          106 -84 callsubr
          589 -149 160 callsubr
        </CharString>
        <CharString name="uni0915094D0937094D0935">
          808 517 394 40 callgsubr
          1011 91 rmoveto
          -776 -59 516 -392 hlineto
          -22 callsubr
          -45 -227 vlineto
          -57 callsubr
          608 -148 hlineto
          166 callgsubr
        </CharString>
        <CharString name="uni0915094D0938">
          1105 1564 339 rmoveto
          -223 hlineto
          -80 callgsubr
          232 hlineto
          -632 -224 rmoveto
          236 callgsubr
          628 283 rmoveto
          -1846 -104 callsubr
          187 -348 hlineto
          -3 callgsubr
        </CharString>
        <CharString name="uni0915094D0938094D091F">
          1540 1672 485 rmoveto
          -50 callsubr
          -68 -230 vlineto
          -80 callgsubr
          637 -78 hlineto
          -1037 -146 rmoveto
          140 callsubr
          883 87 190 callgsubr
          -2280 -93 callsubr
          209 -55 callsubr
          639 -202 -65 callgsubr
        </CharString>
        <CharString name="uni0915094D0938094D0921">
          1514 1661 485 348 callsubr
          -68 -219 vlineto
          -80 callgsubr
          623 -78 hlineto
          -1023 -146 rmoveto
          137 -1 9 -324 vlineto
          -61 callgsubr
          623 vlineto
          -69 callgsubr
          869 87 349 callgsubr
          -2254 -93 callsubr
          210 -55 callsubr
          640 vlineto
          -19 12 22 -9 32 hhcurveto
          -64 callgsubr
        </CharString>
        <CharString name="uni0915094D0938094D0924">
          1583 2043 485 rmoveto
          -373 268 callsubr
          -229 vlineto
          -80 callgsubr
          689 hlineto
          -1089 -224 rmoveto
          140 callsubr
          1084 283 rmoveto
          -2324 -104 callsubr
          209 -55 callsubr
          638 -202 -37 callsubr
        </CharString>
        <CharString name="uni0915094D0938094D092A094D0930">
          1556 2016 45 callgsubr
          -653 -224 rmoveto
          -80 callgsubr
          244 -224 hlineto
          -644 hmoveto
          140 callsubr
          1057 283 rmoveto
          -2297 -104 callsubr
          209 -55 callsubr
          644 -89 123 callsubr
        </CharString>
        <CharString name="uni0915094D0938094D092A094D0932">
          2294 2753 485 rmoveto
          -284 hlineto
          -33 -12 -14 -25 -5 hvcurveto
          -4 hlineto
          27 -5 -16 12 -39 hhcurveto
          -309 198 callsubr
          -227 191 callsubr
          1077 vlineto
          -1412 -224 rmoveto
          -80 callgsubr
          234 -224 hlineto
          -634 hmoveto
          236 callgsubr
          1816 283 rmoveto
          -3034 -104 callsubr
          187 -55 callsubr
          634 215 callsubr
          294 114 callgsubr
        </CharString>
        <CharString name="uni0916">
          675 1394 622 57 callsubr
        </CharString>
        <CharString name="uni0916093C">
          675 495 -165 -13 callsubr
          899 687 57 callsubr
        </CharString>
        <CharString name="uni0916093C094D">
          326 452 -165 -13 callsubr
          -229 304 rmoveto
          265 hlineto
          85 callsubr
          526 59 -1112 -59 475 -234 vlineto
          29 callgsubr
          -392 162 callsubr
          620 88 rmoveto
          2 callgsubr
          397 58 hlineto
          endchar
        </CharString>
        <CharString name="uni0916093C094D0924">
          1109 169 callgsubr
          1377 691 rmoveto
          -1849 -77 callgsubr
          1003 -78 -373 116 callgsubr
          199 59 -134 -103 callgsubr
          308 298 callgsubr
          hlineto
          endchar
        </CharString>
        <CharString name="uni0916093C094D092E">
          1409 169 callgsubr
          1416 554 13 callsubr
        </CharString>
        <CharString name="uni0916093C094D092F">
          1325 169 callgsubr
          1332 244 -49 callgsubr
          -2065 -77 callgsubr
          869 vlineto
          -80 callsubr
          -156 216 callsubr
          -28 callgsubr
          14 11 2 3 9 hvcurveto
          -32 9 24 -15 41 185 callgsubr
          149 vlineto
          endchar
        </CharString>
        <CharString name="uni0916093C094D0930">
          639 927 -235 -13 callsubr
          467 757 rmoveto
          -1414 -59 475 -233 108 callgsubr
          -201 171 -113 -392 6 callsubr
        </CharString>
        <CharString name="uni0916093C094D0930094D">
          129 callgsubr
          730 -325 -13 callsubr
          -110 315 136 callgsubr
        </CharString>
        <CharString name="uni0916093C094D0935">
          1102 169 callgsubr
          1370 691 rmoveto
          -1842 -77 callgsubr
          995 -392 vlineto
          -22 callsubr
          -207 vlineto
          251 callgsubr
          -28 callgsubr
          13 11 1 3 9 hvcurveto
          -31 344 callgsubr
          317 27 callgsubr
        </CharString>
        <CharString name="uni0916093C094D0936">
          1416 169 callgsubr
          -229 308 rmoveto
          265 hlineto
          85 callsubr
          349 59 -935 7 callgsubr
        </CharString>
        <CharString name="uni0916093C094D0938">
          1420 169 callgsubr
          1427 408 rmoveto
          -223 hlineto
          -80 callgsubr
          232 hlineto
          262 59 rmoveto
          -2161 -77 callgsubr
          947 vlineto
          -52 callgsubr
          -113 -276 135 callsubr
          26 -25 53 vhcurveto
          365 hlineto
          53 25 25 53 hvcurveto
          136 -112 -124 -62 callgsubr
          32 callsubr
          6 25 hvcurveto
          190 632 -280 112 563 150 vlineto
          endchar
        </CharString>
        <CharString name="uni0916094D">
          328 223 239 rmoveto
          265 hlineto
          85 callsubr
          528 59 -1114 -59 475 -234 vlineto
          29 callgsubr
          -392 162 callsubr
          620 88 rmoveto
          2 callgsubr
          399 58 hlineto
          endchar
        </CharString>
        <CharString name="uni0916094D0916">
          1701 2420 8 callsubr
          -2440 -77 callgsubr
          915 -234 vlineto
          29 callgsubr
          -258 216 callsubr
          -259 -43 callgsubr
          171 20 callgsubr
          247 59 -305 hlineto
          -53 -24 -24 -53 hvcurveto
          -196 88 callsubr
          321 hlineto
          12 180 callsubr
          -45 vlineto
          140 callgsubr
          569 -347 vlineto
          -28 -11 -10 -28 vhcurveto
          -253 hlineto
          2 callgsubr
          314 128 callsubr
          -134 111 30 callgsubr
        </CharString>
        <CharString name="uni0916094D0924">
          1109 1829 8 callsubr
          -1849 -77 callgsubr
          1002 -78 -372 116 callgsubr
          198 -76 callsubr
          307 296 callsubr
        </CharString>
        <CharString name="uni0916094D0928">
          1425 1563 244 callsubr
          582 196 rmoveto
          -2165 -77 callgsubr
          1318 303 callsubr
          -277 hlineto
          2 callgsubr
          339 hlineto
          14 11 2 3 9 hvcurveto
          -32 9 24 -15 41 117 callsubr
        </CharString>
        <CharString name="uni0916094D092E">
          1409 1868 485 13 callsubr
        </CharString>
        <CharString name="uni0916094D092F">
          1325 1784 55 callgsubr
          -2065 -77 callgsubr
          869 vlineto
          -80 callsubr
          -156 216 callsubr
          -28 callgsubr
          14 11 2 3 9 hvcurveto
          -32 9 24 -15 41 185 callgsubr
          149 vlineto
          endchar
        </CharString>
        <CharString name="uni0916094D0930">
          675 1394 8 callsubr
          -1414 -59 475 -233 108 callgsubr
          -201 171 -113 -392 6 callsubr
        </CharString>
        <CharString name="uni0916094D0930094D">
          129 callgsubr
          620 90 136 callgsubr
        </CharString>
        <CharString name="uni0916094D0935">
          1101 1821 8 callsubr
          -1841 -77 callgsubr
          995 -392 vlineto
          -22 callsubr
          -207 vlineto
          251 callgsubr
          -28 callgsubr
          13 11 1 3 9 hvcurveto
          -31 344 callgsubr
          317 228 callgsubr
        </CharString>
        <CharString name="uni0916094D0936">
          1416 223 239 rmoveto
          265 hlineto
          85 callsubr
          346 59 -932 7 callgsubr
        </CharString>
        <CharString name="uni0917">
          406 221 137 rmoveto
          -60 callgsubr
          615 485 rmoveto
          -1146 -59 -63 callgsubr
          211 113 callgsubr
        </CharString>
        <CharString name="uni0917093C">
          406 312 -87 -13 callsubr
          -91 124 rmoveto
          -60 callgsubr
          615 485 rmoveto
          -1146 -59 -63 callgsubr
          211 113 callgsubr
        </CharString>
        <CharString name="uni0917093C094D">
          38 309 -87 -13 callsubr
          -88 124 rmoveto
          -60 callgsubr
          247 485 rmoveto
          -778 -59 562 271 callsubr
          229 callsubr
          -191 -26 callgsubr
          104 vlineto
          endchar
        </CharString>
        <CharString name="uni0917093C094D0930">
          347 667 -248 -13 callsubr
          -448 293 72 callgsubr
        </CharString>
        <CharString name="uni0917093C094D0930094D">
          110 callsubr
          290 23 rmoveto
          -50 66 -330 -320 rlineto
          134 hlineto
          -36 -182 -13 callsubr
          endchar
        </CharString>
        <CharString name="uni0917094D">
          38 221 137 rmoveto
          -60 callgsubr
          247 485 rmoveto
          -778 -59 220 callsubr
          vlineto
          endchar
        </CharString>
        <CharString name="uni0917094D0917">
          1146 961 137 rmoveto
          -60 callgsubr
          -1030 hmoveto
          -60 callgsubr
          1355 485 rmoveto
          -1886 -59 -63 callgsubr
          628 271 callsubr
          vlineto
          -95 callgsubr
          -192 -26 callgsubr
          211 113 callgsubr
        </CharString>
        <CharString name="uni0917094D0918">
          932 1392 171 177 callsubr
          -365 75 callgsubr
          399 hlineto
          -1171 -426 rmoveto
          -60 callgsubr
          1142 485 rmoveto
          -1673 -59 -63 callgsubr
          205 vlineto
          35 callsubr
          432 27 callgsubr
        </CharString>
        <CharString name="uni0917094D091C">
          1116 221 137 rmoveto
          -60 callgsubr
          1325 485 rmoveto
          -1856 -59 -63 callgsubr
          921 -78 -321 -317 vlineto
          -85 callsubr
          211 131 callsubr
          vlineto
          endchar
        </CharString>
        <CharString name="uni0917094D0923">
          1133 1255 168 -6 callgsubr
          -1034 -426 rmoveto
          -60 callgsubr
          1342 485 rmoveto
          -1873 -59 -63 callgsubr
          196 222 callgsubr
        </CharString>
        <CharString name="uni0917094D0926">
          795 221 137 rmoveto
          -60 callgsubr
          847 289 190 callgsubr
          -1535 -59 562 271 callsubr
          vlineto
          -95 callgsubr
          -192 -26 callgsubr
          592 -78 -336 vlineto
          -53 -25 -25 -53 hvcurveto
          -251 -20 callgsubr
        </CharString>
        <CharString name="uni0917094D0927">
          1096 109 callgsubr
          1836 hmoveto
          -260 -451 hlineto
          -26 -8 -8 -26 vhcurveto
          -510 hlineto
          -87 callsubr
          151 callgsubr
        </CharString>
        <CharString name="uni0917094D0927094D092F">
          1682 46 callgsubr
          2161 -447 181 callsubr
          -940 -59 330 313 callgsubr
          -198 216 callsubr
          -482 hlineto
          -87 callsubr
          552 89 callsubr
          290 callsubr
        </CharString>
        <CharString name="uni0917094D0927094D0935">
          1479 46 callgsubr
          2219 hmoveto
          -736 -59 475 -392 hlineto
          -22 callsubr
          -237 vlineto
          -24 -8 -9 -26 vhcurveto
          -484 hlineto
          -87 callsubr
          554 98 callgsubr
          149 vlineto
          endchar
        </CharString>
        <CharString name="uni0917094D0928">
          1093 1231 168 -107 callgsubr
          -1010 -289 rmoveto
          -60 callgsubr
          1302 485 rmoveto
          -1833 -59 -63 callgsubr
          898 -78 -652 vlineto
          -53 -25 -25 -53 hvcurveto
          -251 -19 callsubr
        </CharString>
        <CharString name="uni0917094D0928094D092F">
          1774 1265 168 -107 callgsubr
          320 hmoveto
          59 -651 43 callgsubr
          143 callgsubr
          363 105 callgsubr
          270 vlineto
          860 -251 -103 callsubr
          -2013 -426 rmoveto
          -60 callgsubr
          1983 485 rmoveto
          -2514 -59 -63 callgsubr
          1230 vlineto
          -97 callsubr
        </CharString>
        <CharString name="uni0917094D092C">
          869 974 242 callgsubr
          -1073 hmoveto
          -60 callgsubr
          1078 485 rmoveto
          -1609 -59 -63 callgsubr
          674 -250 vlineto
          310 callgsubr
          -366 249 rlineto
          316 59 -375 hlineto
          -53 -25 -25 -53 hvcurveto
          102 callgsubr
        </CharString>
        <CharString name="uni0917094D092D">
          1145 109 callgsubr
          1300 -455 41 callgsubr
          586 311 rmoveto
          -261 -252 -213 174 hlineto
          -27 callgsubr
          213 -311 -69 callsubr
        </CharString>
        <CharString name="uni0917094D092D094D092F">
          1746 46 callgsubr
          2225 -447 rmoveto
          -28 -10 -10 -30 vhcurveto
          -448 -101 callgsubr
          143 236 vlineto
          -91 callgsubr
          145 -44 callgsubr
          215 hlineto
          -946 -396 rmoveto
          -24 -5 148 callsubr
          -6 7 24 hvcurveto
          112 107 callsubr
          268 hlineto
          1207 311 rmoveto
          -966 -59 356 -72 callsubr
          -130 149 callsubr
          -484 174 hlineto
          -19 callgsubr
          -362 42 callsubr
          -99 113 204 callgsubr
          231 22 callsubr
          -162 171 callgsubr
          -136 -62 callsubr
          155 201 -155 -92 callsubr
          518 hlineto
          17 12 4 9 7 hvcurveto
          -91 -69 callsubr
        </CharString>
        <CharString name="uni0917094D092E">
          1123 1583 485 rmoveto
          -214 78 214 hlineto
          -327 -395 -107 callgsubr
          -1035 -289 rmoveto
          -60 callgsubr
          1332 485 rmoveto
          -1863 -59 -63 callgsubr
          602 -78 -329 vlineto
          -53 -25 -25 -53 hvcurveto
          -251 12 callsubr
        </CharString>
        <CharString name="uni0917094D092F">
          1004 1464 175 -103 callsubr
          -1243 -426 rmoveto
          -60 callgsubr
          1213 485 rmoveto
          -1744 -59 -63 callgsubr
          460 vlineto
          -97 callsubr
        </CharString>
        <CharString name="uni0917094D0930">
          402 219 145 72 callgsubr
        </CharString>
        <CharString name="uni0917094D0930094D">
          110 callsubr
          240 89 rmoveto
          -330 -320 rlineto
          134 hlineto
          246 254 rlineto
          endchar
        </CharString>
        <CharString name="uni0917094D0930094D092F">
          1031 1491 175 -103 callsubr
          -1272 -418 83 callsubr
          1242 477 rmoveto
          -1771 65 callgsubr
          398 491 vlineto
          -80 callsubr
          -162 hlineto
          -281 -272 rlineto
          134 hlineto
          162 167 rlineto
          -15 13 21 -8 29 hhcurveto
          -23 callgsubr
        </CharString>
        <CharString name="uni0917094D0932">
          1178 221 137 rmoveto
          -60 callgsubr
          1387 485 rmoveto
          -1918 -59 -63 callgsubr
          982 -78 -284 vlineto
          -32 -13 -14 -25 -5 hvcurveto
          -4 hlineto
          14 callgsubr
          -310 hlineto
          -95 callgsubr
          -329 -51 callgsubr
        </CharString>
        <CharString name="uni0917094D0935">
          808 221 137 rmoveto
          -60 callgsubr
          1017 485 rmoveto
          -1548 -59 -63 callgsubr
          614 -392 vlineto
          -59 callgsubr
          -299 42 callsubr
          -251 -35 callsubr
        </CharString>
        <CharString name="uni0917094D0938">
          1136 1595 339 rmoveto
          -223 hlineto
          -80 callgsubr
          232 hlineto
          -1374 -426 rmoveto
          -60 callgsubr
          1346 485 rmoveto
          -1877 -59 -63 callgsubr
          575 vlineto
          -100 callsubr
          632 -280 112 563 150 vlineto
          endchar
        </CharString>
        <CharString name="uni0918">
          194 653 171 177 callsubr
          -365 75 callgsubr
          399 hlineto
          181 callgsubr
          -934 -59 140 hlineto
          35 callsubr
          432 27 callgsubr
        </CharString>
        <CharString name="uni0918094D">
          -188 254 137 207 callsubr
          365 59 -639 -59 140 hlineto
          35 callsubr
          490 59 hlineto
          endchar
        </CharString>
        <CharString name="uni0918094D0928">
          922 1381 485 rmoveto
          366 callsubr
          -1 47 callgsubr
          -362 75 callgsubr
          1127 hlineto
          -321 -395 -107 callgsubr
          582 196 rmoveto
          -1662 -59 140 hlineto
          35 callsubr
          431 197 callsubr
        </CharString>
        <CharString name="uni0918094D092E">
          924 1384 485 rmoveto
          -214 78 214 hlineto
          -327 -395 -107 callgsubr
          -407 -256 rmoveto
          34 callgsubr
          -362 75 callgsubr
          803 259 callgsubr
          -1664 -59 140 hlineto
          35 callsubr
          431 197 callgsubr
        </CharString>
        <CharString name="uni0918094D092F">
          840 1300 175 -103 callsubr
          -1046 -426 207 callsubr
          696 83 callgsubr
          944 485 rmoveto
          -1580 -59 140 hlineto
          35 callsubr
          431 27 callsubr
          -23 callgsubr
        </CharString>
        <CharString name="uni0918094D0930">
          195 654 183 177 callsubr
          -365 -101 callgsubr
          108 -84 callsubr
          197 59 -197 -88 callgsubr
          123 -84 callsubr
          399 hlineto
          181 callgsubr
          -935 -59 141 hlineto
          -7 -5 -3 -10 -14 vvcurveto
          -132 vlineto
          272 callsubr
          328 hlineto
          -155 -149 rlineto
          130 hlineto
          162 161 rlineto
          -102 -69 callsubr
        </CharString>
        <CharString name="uni0918094D0930094D">
          -174 111 402 rmoveto
          272 callsubr
          323 hlineto
          -154 -149 rlineto
          134 hlineto
          165 164 rlineto
          28 44 -430 -101 callgsubr
          108 -84 callsubr
          197 59 -197 -88 callgsubr
          123 -84 callsubr
          291 59 -566 -59 141 hlineto
          -7 -5 -3 -10 -14 vvcurveto
          endchar
        </CharString>
        <CharString name="uni0919">
          154 695 309 66 callsubr
        </CharString>
        <CharString name="uni0919094D">
          154 312 -61 77 callsubr
          269 370 66 callsubr
        </CharString>
        <CharString name="uni0919094D0930">
          154 696 309 rmoveto
          88 83 -88 hlineto
          -716 230 rmoveto
          -59 516 -78 -317 vlineto
          -95 callgsubr
          -83 vlineto
          -53 25 -26 323 callsubr
          -5 -26 hvcurveto
          -121 -38 callsubr
          -240 -2 callgsubr
          69 -112 -81 -92 callsubr
          107 126 callgsubr
          88 -43 callsubr
          145 11 callgsubr
          -308 188 callsubr
          59 20 callgsubr
          363 137 266 59 hlineto
          endchar
        </CharString>
        <CharString name="uni091A">
          144 864 8 callsubr
          -884 -59 623 -392 hlineto
          -26 -8 -8 -26 vhcurveto
          -309 hlineto
          -26 -6 6 25 hvcurveto
          227 vlineto
          24 6 165 callsubr
        </CharString>
        <CharString name="uni091A094D">
          -230 576 8 callsubr
          -596 -59 596 hlineto
          -316 -426 rmoveto
          21 callgsubr
          426 59 hlineto
          endchar
        </CharString>
        <CharString name="uni091A094D091A">
          624 1344 8 callsubr
          -1364 -59 1101 228 callsubr
          -5 6 25 hvcurveto
          227 vlineto
          24 5 189 callgsubr
          -381 -59 91 hlineto
          91 callsubr
          -227 47 callgsubr
          -300 -43 callgsubr
          227 vlineto
          24 6 7 24 vhcurveto
          157 59 -383 -59 94 hlineto
          91 callsubr
          -241 -92 callsubr
          370 27 callsubr
          377 345 callsubr
          151 vlineto
          endchar
        </CharString>
        <CharString name="uni091A094D091B">
          849 1136 485 rmoveto
          -109 -58 callsubr
          389 hlineto
          433 hmoveto
          59 -1589 -59 633 114 callsubr
          -84 47 callgsubr
          -309 42 callgsubr
          379 hlineto
          12 180 callsubr
          -3 144 callsubr
        </CharString>
        <CharString name="uni091A094D091B094D0935">
          848 1165 53 callgsubr
          -1588 -59 630 114 callsubr
          -84 47 callgsubr
          -306 42 callgsubr
          376 hlineto
          13 10 1 3 9 hvcurveto
          -37 7 26 -17 44 hhcurveto
          150 callsubr
        </CharString>
        <CharString name="uni091A094D0928">
          873 1012 168 -107 callgsubr
          581 196 rmoveto
          -1613 -59 1352 302 callgsubr
          -308 42 callgsubr
          378 167 callsubr
          210 -426 138 callgsubr
        </CharString>
        <CharString name="uni091A094D092E">
          865 1324 485 rmoveto
          -214 78 214 hlineto
          -327 124 callsubr
          -1604 -59 1017 -78 -329 hlineto
          -95 callgsubr
          -249 vlineto
          251 callgsubr
          -297 42 callgsubr
          367 205 callsubr
          10 10 hvcurveto
          -10 144 callgsubr
        </CharString>
        <CharString name="uni091A094D092F">
          780 1240 175 -49 callsubr
          -1520 -59 910 83 callgsubr
          -296 42 callgsubr
          366 27 callsubr
          -23 callgsubr
        </CharString>
        <CharString name="uni091A094D0930">
          144 864 8 callsubr
          -884 -59 623 -380 hlineto
          -26 -8 -8 -26 vhcurveto
          -309 289 callgsubr
          -59 243 callsubr
          161 159 rlineto
          -100 -69 callsubr
        </CharString>
        <CharString name="uni091A094D0930094D">
          -220 -20 563 rmoveto
          520 59 -520 hlineto
          52 -196 rmoveto
          243 callsubr
          170 168 rlineto
          38 40 -390 289 callgsubr
          hlineto
          endchar
        </CharString>
        <CharString name="uni091B">
          358 645 485 rmoveto
          -109 -58 callsubr
          389 hlineto
          433 hmoveto
          59 -1098 -59 142 vlineto
          90 callsubr
          53 -25 25 -53 vhcurveto
          -115 78 hlineto
          endchar
        </CharString>
        <CharString name="uni091B094D">
          357 1077 362 callsubr
          -1097 -59 142 vlineto
          90 callsubr
          53 -25 25 -53 vhcurveto
          -334 -58 callsubr
          endchar
        </CharString>
</ttFont>
